<?xml version="1.0" standalone="no"?>
<!DOCTYPE svg PUBLIC "-//W3C//DTD SVG 20010904//EN"
 "http://www.w3.org/TR/2001/REC-SVG-20010904/DTD/svg10.dtd">
<svg version="1.0" xmlns="http://www.w3.org/2000/svg"
 width="1338.000000pt" height="1348.000000pt" viewBox="0 0 1338.000000 1348.000000"
 preserveAspectRatio="xMidYMid meet">

<g transform="translate(0.000000,1348.000000) scale(0.100000,-0.100000)"
fill="#000000" stroke="none">
<path d="M2510 12436 c-121 -37 -106 -29 -235 -125 -131 -96 -148 -113 -206
-196 -27 -38 -68 -97 -92 -130 -32 -44 -53 -91 -80 -180 -21 -66 -46 -140 -55
-165 -14 -37 -17 -81 -17 -250 l1 -205 46 -148 c44 -140 51 -155 140 -287 88
-130 100 -143 191 -210 55 -40 104 -70 112 -67 7 3 36 -5 63 -18 59 -29 138
-51 212 -61 42 -5 50 -9 35 -15 -17 -6 -15 -8 10 -9 54 -3 179 0 250 6 110 9
318 99 410 179 39 33 89 76 112 94 23 18 59 61 81 95 133 207 133 207 178 355
42 141 44 151 44 279 0 95 -4 143 -15 169 -8 19 -15 65 -15 100 0 115 -33 213
-118 357 -71 119 -86 137 -190 230 -109 97 -119 103 -250 158 -104 44 -149 58
-187 58 -27 0 -90 1 -140 3 -49 1 -108 -1 -130 -6 -27 -5 -34 -4 -20 2 11 5
15 10 8 10 -6 1 -17 3 -25 5 -7 3 -60 -10 -118 -28z m447 -2 c-3 -3 -12 -4
-19 -1 -8 3 -5 6 6 6 11 1 17 -2 13 -5z m-423 -46 c10 -40 6 -54 -9 -28 -8 14
-14 31 -15 38 0 21 17 13 24 -10z m-44 5 c-1 -5 -7 -19 -14 -32 l-14 -24 -7
23 c-5 15 -3 25 6 31 17 11 29 11 29 2z m-113 -39 c-3 -4 3 -18 13 -32 11 -13
20 -32 20 -41 -1 -9 -9 0 -20 19 l-19 35 -15 -37 c-19 -44 -26 -48 -26 -14 0
22 34 76 47 76 4 0 3 -3 0 -6z m107 -205 c4 -99 5 -183 3 -186 -3 -3 -24 5
-46 18 l-41 23 -1 100 c0 56 -2 111 -5 123 -2 11 2 23 9 26 9 3 12 -23 12
-108 0 -97 3 -116 19 -134 12 -13 23 -18 29 -12 5 5 7 81 5 170 -1 89 0 161 3
161 3 0 9 -81 13 -181z m56 21 c0 -134 2 -162 15 -166 8 -4 22 0 31 7 13 11
15 33 12 131 -2 65 0 118 5 118 4 0 7 -19 7 -42 0 -24 3 -79 6 -123 l6 -81
-42 -28 c-23 -15 -43 -26 -45 -24 -1 2 -6 85 -9 186 -5 125 -4 182 3 182 7 0
11 -55 11 -160z m73 130 c-5 -19 -23 -39 -23 -25 0 9 20 45 24 45 2 0 2 -9 -1
-20z m57 -24 c0 -12 -5 -7 -19 24 -11 24 -11 24 3 6 9 -11 16 -24 16 -30z m4
-31 c13 -17 135 -21 261 -7 81 9 95 8 81 -5 -8 -8 -31 -10 -243 -17 l-123 -5
0 25 c0 27 8 31 24 9z m-323 -32 c0 -21 2 -56 5 -79 5 -38 3 -42 -38 -75 -146
-114 -257 -302 -299 -504 -20 -99 -16 -276 10 -375 74 -282 253 -482 506 -562
58 -19 92 -23 195 -22 142 1 212 20 337 90 88 49 225 186 280 281 188 322 154
749 -81 1010 -25 28 -46 57 -46 64 0 8 10 28 21 44 12 17 18 22 15 12 -18 -56
-17 -65 12 -98 134 -155 199 -325 209 -545 5 -101 2 -138 -17 -225 -62 -295
-271 -538 -535 -622 -103 -33 -310 -32 -410 1 -203 68 -381 242 -463 452 -37
95 -52 171 -59 285 -15 282 99 544 316 729 33 28 33 29 29 102 -2 41 0 74 4
74 5 0 8 -17 9 -37z m776 22 l38 16 -24 -21 c-28 -24 -73 -26 -95 -4 -24 23
-19 26 13 9 26 -13 34 -13 68 0z m99 -84 c25 -20 26 -21 5 -21 -24 0 -61 53
-60 85 0 15 4 12 14 -11 8 -18 26 -41 41 -53z m-186 26 c8 -3 23 -8 33 -11 9
-3 28 -1 42 4 16 6 25 6 25 0 0 -5 14 -25 31 -44 29 -34 30 -36 14 -65 -18
-36 -14 -35 -62 -16 -75 28 -156 47 -208 47 l-54 1 23 46 24 46 58 -2 c33 0
66 -3 74 -6z m-190 -17 c0 -5 -27 -65 -60 -132 -34 -67 -68 -143 -76 -170 -16
-47 -17 -48 -58 -49 -22 0 -60 -2 -83 -5 l-43 -6 0 51 0 51 65 41 65 42 0 94
0 93 95 0 c56 0 95 -4 95 -10z m1 -189 l-38 -80 5 -210 5 -210 -28 -25 c-30
-28 -71 -33 -99 -13 -17 12 -16 15 13 44 17 17 32 42 32 55 1 13 2 91 3 173
l1 150 49 98 c41 81 52 97 72 97 23 0 23 0 -15 -79z m156 69 c76 -18 153 -51
153 -66 0 -8 -7 -30 -15 -50 -13 -32 -16 -34 -35 -22 -20 13 -20 13 2 18 16 4
23 13 23 30 0 20 -10 30 -47 48 -26 12 -68 23 -94 25 -42 2 -49 -1 -65 -28
-44 -72 -60 -108 -57 -128 3 -21 8 -22 78 -20 71 3 77 5 103 35 l28 33 -17
-37 c-10 -21 -22 -38 -28 -39 -6 0 -19 -2 -28 -4 -10 -2 -48 -5 -85 -7 -67 -3
-68 -2 -71 23 -2 14 14 63 37 112 44 94 44 94 118 77z m-647 -29 c0 -24 -4
-28 -19 -24 -19 5 -81 -50 -119 -106 -15 -22 -15 -24 3 -37 18 -14 18 -14 -1
-14 -11 0 -30 -7 -42 -16 -31 -21 -28 -1 7 49 25 36 158 177 168 177 2 0 3
-13 3 -29z m656 -36 c10 -8 14 -15 8 -15 -5 0 -19 7 -30 15 -10 8 -14 15 -8
15 5 0 19 -7 30 -15z m248 -54 c25 -32 61 -90 80 -127 34 -70 81 -212 73 -221
-3 -2 -25 8 -49 23 -25 16 -62 29 -91 32 -43 4 -53 1 -107 -37 l-59 -42 -16
32 c-9 17 -15 32 -13 33 2 2 19 6 38 9 32 6 34 6 16 -8 -26 -20 -11 -33 17
-15 79 50 112 56 178 30 29 -11 55 -17 58 -14 9 9 -20 99 -56 169 -36 72 -97
155 -114 155 -13 0 -54 -87 -75 -159 -14 -51 -15 -69 -6 -94 16 -43 6 -47 -13
-6 -16 33 -15 37 15 124 17 50 39 111 48 137 8 26 19 45 24 42 4 -3 28 -31 52
-63z m-834 16 c53 -32 55 -35 58 -79 l3 -45 -50 5 c-66 6 -102 -10 -151 -66
l-40 -45 1 54 c0 44 2 50 10 30 9 -22 10 -22 32 -7 45 33 74 44 121 50 27 2
53 9 58 14 16 16 -10 51 -63 83 -27 17 -49 33 -49 35 0 10 18 2 70 -29z m556
8 c10 -8 14 -15 8 -15 -5 0 -19 7 -30 15 -10 8 -14 15 -8 15 5 0 19 -7 30 -15z
m131 -80 c2 -1 -4 -26 -13 -55 -13 -45 -18 -51 -26 -36 -5 10 -7 39 -3 67 6
44 9 48 23 37 10 -7 18 -13 19 -13z m-117 -72 c0 -19 -26 -33 -60 -33 -32 0
-60 14 -60 30 0 3 27 7 60 8 33 2 60 -1 60 -5z m-790 -49 c0 -35 -5 -37 -38
-11 -10 8 -9 14 4 28 25 28 34 23 34 -17z m264 26 c26 -9 26 -11 26 -115 0
-58 -3 -105 -7 -105 -4 0 -39 19 -77 42 -39 23 -86 50 -104 61 l-33 19 19 31
c37 64 111 92 176 67z m596 -50 c21 -42 26 -60 17 -60 -29 0 -72 70 -62 100 4
11 8 20 11 20 2 0 17 -27 34 -60z m-368 38 c2 -7 5 -59 7 -116 2 -102 2 -103
-28 -132 -35 -35 -49 -37 -101 -10 l-40 20 0 120 0 119 28 3 c80 10 130 8 134
-4z m190 -26 l36 -19 1 -150 c2 -138 0 -151 -19 -176 -23 -29 -65 -36 -102
-16 -20 11 -20 11 5 37 46 50 49 65 43 208 -4 74 -5 134 -3 134 1 0 19 -8 39
-18z m121 -54 c19 -32 25 -57 26 -115 2 -71 1 -74 -30 -103 -18 -16 -34 -28
-36 -27 -1 2 -5 67 -9 145 -5 123 -4 142 9 142 8 0 26 -19 40 -42z m-858 15
c19 -9 35 -19 35 -22 0 -3 -16 -19 -36 -34 -19 -16 -48 -47 -65 -69 -16 -23
-29 -35 -29 -27 0 32 44 169 54 169 3 0 21 -8 41 -17z m1504 -127 c2 -45 -6
-27 -12 29 -4 34 -3 42 3 25 4 -14 8 -38 9 -54z m-1139 -81 c135 -75 249 -141
254 -145 14 -14 -36 -95 -62 -98 -12 -2 -75 7 -139 19 -65 13 -109 25 -98 26
11 2 65 -5 120 -16 96 -19 101 -19 125 -2 32 23 37 56 11 70 -14 8 -21 8 -24
-2 -4 -8 -6 -6 -6 4 -1 25 -23 39 -229 154 -157 88 -195 105 -207 95 -14 -11
-55 -92 -95 -185 -54 -126 -63 -291 -22 -385 47 -108 174 -240 284 -296 68
-34 78 -28 78 46 0 59 -2 63 -46 110 -26 27 -50 47 -55 44 -14 -8 -18 13 -21
134 -3 82 0 112 9 112 6 0 27 15 46 33 35 32 67 38 67 11 0 -7 -18 -26 -40
-40 -40 -27 -40 -27 -40 -93 0 -133 8 -163 51 -196 l39 -29 0 -93 c0 -51 -2
-93 -4 -93 -2 0 -25 9 -50 20 -141 60 -286 207 -337 339 -33 87 -34 161 -6
273 25 94 131 332 145 324 4 -2 117 -65 252 -141z m-360 33 c-27 -57 -59 -140
-72 -185 -13 -46 -26 -83 -30 -83 -5 0 -9 28 -10 63 0 34 -2 69 -3 77 -5 39
125 230 156 230 4 0 -14 -46 -41 -102z m1196 37 c63 -40 79 -69 70 -120 -5
-26 -14 -39 -33 -46 -33 -12 -52 3 -33 26 9 11 16 12 25 5 17 -14 26 0 27 42
1 23 -6 37 -28 55 -36 28 -49 25 -47 -13 1 -20 0 -22 -4 -7 -4 23 -38 53 -58
53 -26 0 -55 -41 -55 -79 0 -38 28 -75 76 -99 19 -10 22 -22 26 -96 4 -71 9
-91 31 -125 l27 -41 -30 -62 c-17 -34 -50 -89 -74 -122 -46 -64 -106 -126
-106 -110 0 37 53 243 79 306 45 112 39 178 -26 245 -20 21 -49 61 -65 90
l-28 52 52 40 c68 51 101 53 174 6z m-980 -57 c19 -23 19 -23 -1 -7 -11 10
-29 19 -40 22 -19 4 -19 5 1 6 11 0 29 -9 40 -21z m738 -35 c21 -43 23 -53 11
-53 -8 0 -15 9 -15 20 0 32 -28 36 -50 7 -35 -44 -157 -128 -195 -134 -30 -5
-42 -15 -70 -59 -39 -61 -60 -70 -141 -60 -30 3 -54 3 -54 -1 1 -5 21 -23 45
-41 28 -20 45 -40 45 -53 0 -11 5 -29 10 -39 11 -20 127 -90 150 -90 18 0 39
31 40 56 0 17 -8 23 -35 27 -36 6 -110 45 -101 54 2 3 28 -8 55 -24 l51 -28
40 22 c22 12 40 20 40 18 0 -11 -74 -155 -79 -155 -3 0 -44 22 -91 49 -83 47
-85 49 -88 89 -3 39 -6 43 -68 77 -41 23 -64 42 -64 54 0 17 5 17 85 3 102
-17 122 -9 158 65 20 41 26 46 58 48 60 3 219 128 219 172 0 18 10 37 15 31 2
-2 14 -27 29 -55z m184 45 c18 -18 15 -28 -8 -28 -11 0 -20 -4 -20 -9 0 -16
23 -25 59 -22 30 2 32 0 21 -14 -16 -20 -59 -19 -82 2 -20 18 -23 36 -8 64 12
22 21 24 38 7z m-943 -66 c-10 -2 -25 3 -33 12 -15 14 -13 15 17 3 23 -8 28
-13 16 -15z m836 -95 c55 -41 63 -136 20 -229 -17 -36 -42 -123 -59 -206 -32
-155 -30 -151 -115 -197 l-47 -26 -76 41 c-94 53 -90 66 6 16 77 -41 87 -41
148 3 35 26 41 37 56 103 10 40 26 110 37 154 10 45 30 106 44 135 27 58 32
107 14 142 -6 12 -32 42 -57 65 -37 34 -40 40 -17 27 17 -9 37 -22 46 -28z
m236 -44 c-8 -71 -25 -133 -36 -133 -15 0 -31 60 -31 114 0 50 1 52 33 63 17
5 34 11 36 12 2 0 1 -25 -2 -56z m-984 -30 c-16 -47 -69 -75 -113 -62 -23 6
-23 7 8 8 22 1 44 12 70 36 43 40 43 40 35 18z m-104 -211 c30 -109 36 -141
26 -130 -7 7 -65 215 -65 235 0 29 7 11 39 -105z m620 95 c-2 -2 -21 -15 -41
-30 -45 -33 -55 -33 -109 -2 -24 14 -37 25 -29 25 8 -1 26 -7 40 -15 36 -20
56 -18 97 10 20 13 39 22 42 20 2 -3 2 -6 0 -8z m-436 -87 c9 -12 9 -13 -3 -2
-25 22 -30 13 -30 -52 l0 -64 53 -44 c28 -24 104 -88 168 -141 67 -55 126 -97
138 -97 28 0 26 14 -5 39 -15 12 -23 21 -19 21 12 0 105 -55 105 -62 0 -4 -20
-10 -45 -14 -54 -8 -47 -12 -220 133 -72 59 -143 118 -159 130 -27 21 -29 29
-34 114 -4 82 -3 94 14 106 18 13 19 12 22 -19 2 -18 9 -40 15 -48z m433 -53
c-14 -56 -30 -114 -36 -127 l-11 -25 5 25 c20 98 60 252 64 242 2 -6 -8 -58
-22 -115z m-351 86 c35 -17 35 -17 34 -77 l-2 -61 -6 46 c-7 47 -25 79 -44 79
-6 0 -19 -8 -30 -17 -19 -17 -20 -17 -10 2 6 11 8 26 6 33 -6 17 10 15 52 -5z
m223 -200 c35 -19 61 -37 59 -40 -3 -2 -48 18 -100 46 -51 28 -101 51 -110 51
-17 0 -22 11 -11 22 5 6 20 -2 162 -79z m-158 -174 c55 -45 100 -86 100 -92 0
-12 -164 -2 -187 12 -11 6 -17 30 -19 85 -3 42 -2 76 1 76 2 0 50 -37 105 -81z"/>
<path d="M2916 12158 c-9 -5 -16 -17 -16 -27 0 -15 14 -20 70 -30 39 -6 93
-20 121 -30 57 -22 79 -19 79 13 -1 39 -31 63 -90 70 -94 12 -148 13 -164 4z"/>
<path d="M2693 12150 c-21 -9 -23 -16 -23 -89 l0 -80 -61 -46 c-54 -42 -60
-50 -57 -79 3 -31 3 -31 63 -31 l60 0 72 145 c39 80 72 152 72 161 1 9 -6 20
-15 23 -23 9 -85 6 -111 -4z"/>
<path d="M2775 11874 c-15 -23 -17 -49 -16 -176 1 -130 -1 -155 -19 -195 -11
-25 -20 -49 -20 -54 0 -17 47 -9 66 12 18 20 19 36 16 228 -2 113 -5 207 -6
209 -2 1 -11 -9 -21 -24z"/>
<path d="M2390 11759 c-34 -7 -80 -51 -80 -76 0 -20 151 -104 166 -92 11 9 11
87 -1 145 -6 25 -35 33 -85 23z"/>
<path d="M2561 11736 c-18 -21 -9 -192 10 -211 21 -22 71 -28 92 -13 24 18 33
68 27 158 l-5 75 -56 3 c-40 2 -59 -1 -68 -12z"/>
<path d="M2870 11594 c0 -100 -3 -124 -21 -162 -18 -37 -19 -46 -8 -53 20 -12
24 -11 50 10 22 18 24 27 25 113 1 139 -7 202 -28 206 -16 3 -18 -8 -18 -114z"/>
<path d="M2980 11583 c0 -102 7 -126 30 -98 23 27 16 145 -10 176 l-19 24 -1
-102z"/>
<path d="M2112 11668 c-17 -17 -15 -38 3 -38 16 0 38 34 28 44 -9 9 -18 7 -31
-6z"/>
<path d="M2087 11457 c-28 -55 -35 -91 -16 -85 10 3 59 111 59 130 0 22 -20 2
-43 -45z"/>
<path d="M3197 11542 c-36 -22 -42 -44 -21 -87 22 -47 34 -44 34 8 0 24 7 52
15 63 28 37 17 44 -28 16z"/>
<path d="M3260 11359 c0 -5 7 -26 15 -46 19 -45 18 -117 -2 -168 -59 -151 -89
-275 -65 -275 11 0 76 84 111 145 40 69 43 90 15 148 -16 34 -24 70 -24 105 0
29 -4 61 -10 71 -11 21 -40 36 -40 20z"/>
<path d="M3380 11315 c-8 -9 -10 -29 -7 -51 11 -67 28 -59 35 16 5 51 -5 63
-28 35z"/>
<path d="M2580 10726 c0 -26 6 -48 14 -55 20 -17 126 -27 126 -13 0 13 -116
112 -131 112 -5 0 -9 -20 -9 -44z"/>
<path d="M8540 12173 c-75 -18 -81 -21 -57 -34 15 -9 13 -15 -22 -62 -36 -47
-40 -60 -49 -142 -9 -84 -8 -99 20 -214 51 -212 215 -515 363 -671 29 -30 66
-75 83 -100 73 -109 315 -324 488 -434 59 -38 155 -89 213 -113 92 -39 120
-46 215 -54 l109 -9 63 35 c34 19 68 33 76 30 9 -4 22 16 41 64 26 68 27 73
17 173 -6 57 -13 114 -15 128 -10 45 -125 324 -145 350 -15 20 -13 9 9 -50 39
-101 54 -183 49 -272 -4 -89 -29 -142 -86 -182 -34 -24 -52 -29 -114 -32 l-73
-3 60 8 c86 11 138 41 172 98 26 44 28 56 28 148 -1 116 -19 181 -96 341 -157
325 -518 682 -810 801 -61 25 -70 33 -91 75 -19 39 -27 46 -45 41 -16 -3 -35
5 -62 26 -21 17 -41 31 -43 31 -3 0 -3 -13 0 -30 5 -33 -20 -52 -41 -31 -8 8
-7 11 6 11 12 0 17 8 17 28 0 25 -4 28 -73 45 -85 20 -120 20 -207 0z m250
-108 c0 -8 -9 -19 -21 -25 -13 -7 -18 -17 -15 -27 4 -9 -7 -30 -29 -54 -19
-22 -35 -44 -35 -51 0 -6 -9 -3 -20 7 -22 20 -28 44 -7 26 11 -8 21 -2 45 29
18 21 32 45 32 53 0 8 7 20 15 27 8 7 15 19 15 27 0 8 5 11 10 8 6 -3 10 -13
10 -20z m161 -15 c12 0 25 -20 45 -66 3 -7 -12 -14 -37 -18 -45 -7 -109 -41
-109 -57 0 -21 -17 -6 -39 37 -23 42 -23 47 -8 56 9 5 17 15 17 23 0 7 10 15
23 17 14 2 23 11 25 26 l3 23 33 -21 c19 -11 40 -20 47 -20z m-410 -77 c13
-16 12 -17 -3 -5 -9 8 -23 10 -29 6 -8 -4 -9 -3 -5 4 10 17 21 15 37 -5z m95
-11 c-4 -3 -14 2 -24 12 -16 18 -16 18 6 6 13 -6 21 -14 18 -18z m-17 -26 c-3
-3 -11 5 -18 17 -13 21 -12 21 5 5 10 -10 16 -20 13 -22z m61 -156 c63 -69
119 -128 125 -132 5 -4 -3 -8 -20 -8 -22 0 -42 13 -82 52 -29 29 -53 55 -53
59 0 3 25 -19 56 -50 36 -35 59 -51 61 -43 3 7 -48 69 -114 138 -65 69 -125
135 -133 147 -21 31 27 -18 160 -163z m491 124 c78 -42 188 -118 245 -169 l49
-44 -57 -1 c-34 0 -60 -5 -64 -12 -5 -7 -7 -39 -6 -70 2 -32 -1 -58 -5 -58
-21 1 -54 37 -47 53 8 22 21 22 27 0 3 -10 5 1 6 25 1 52 28 82 74 82 l32 1
-38 33 c-96 85 -297 201 -297 172 0 -25 117 -206 154 -238 17 -16 26 -28 20
-28 -24 0 -114 120 -163 219 -17 33 -35 62 -41 66 -5 3 -10 10 -10 16 0 11 43
-6 121 -47z m-482 -98 c5 -14 -122 123 -128 137 -2 6 25 -20 60 -57 35 -38 66
-73 68 -80z m134 77 c21 -36 35 -68 33 -70 -2 -2 -18 21 -35 52 -17 30 -34 55
-38 55 -13 0 -43 -34 -43 -49 0 -9 26 -45 57 -81 36 -41 43 -52 19 -30 -21 19
-51 52 -67 72 -26 32 -29 40 -18 60 14 28 40 58 49 58 3 0 23 -30 43 -67z
m260 -25 c3 -10 -2 -18 -13 -21 -13 -3 -16 1 -13 17 3 12 -4 32 -14 45 -16 19
-24 22 -55 16 -53 -10 -72 -26 -63 -55 7 -22 8 -23 21 -6 10 14 19 17 41 10
l28 -8 -32 -4 c-25 -2 -33 -8 -33 -23 0 -36 58 -129 81 -129 4 0 17 16 29 35
16 27 19 39 11 54 -16 29 -13 38 4 15 8 -10 15 -27 15 -36 0 -22 -42 -87 -57
-88 -15 0 -51 48 -93 125 -17 33 -36 65 -42 72 -13 16 27 41 83 52 41 8 46 6
71 -23 15 -17 29 -38 31 -48z m-431 53 c2 -4 39 -47 83 -95 64 -70 81 -95 86
-127 l5 -40 -24 28 c-14 15 -44 48 -66 73 l-41 45 52 -49 c29 -28 55 -47 59
-44 10 10 -6 31 -94 127 -46 50 -79 91 -74 91 6 0 12 -4 14 -9z m-72 -68 c0
-7 -39 17 -46 28 -3 6 5 3 20 -6 14 -10 26 -19 26 -22z m310 18 c0 -21 85
-159 124 -201 l41 -45 -42 40 c-24 21 -43 34 -43 28 0 -15 30 -52 141 -175 53
-59 107 -126 120 -149 26 -47 49 -61 49 -32 0 29 -42 81 -184 232 -28 29 -46
52 -41 50 6 -2 57 -54 113 -116 109 -118 142 -172 118 -192 -21 -18 -39 -4
-59 42 -10 25 -63 93 -125 161 -141 155 -268 366 -221 366 5 0 9 -4 9 -9z
m-350 -21 c6 -11 8 -20 6 -20 -3 0 -10 9 -16 20 -6 11 -8 20 -6 20 3 0 10 -9
16 -20z m99 -74 c-3 -3 -18 12 -33 32 l-29 37 34 -32 c18 -18 31 -35 28 -37z
m371 54 c12 -8 9 -10 -12 -10 -16 0 -28 5 -28 10 0 13 20 13 40 0z m124 -47
c19 -26 32 -50 29 -53 -6 -5 -83 80 -83 93 0 19 23 2 54 -40z m-451 -109 c4
-16 9 -40 12 -54 3 -14 -5 4 -19 40 -14 35 -31 69 -38 75 -7 6 -26 27 -43 46
-16 19 -5 10 26 -22 31 -31 59 -69 62 -85z m242 36 l56 -100 -22 -37 -23 -36
-38 44 c-27 31 -38 53 -37 74 l1 30 7 -30 c16 -65 55 -100 78 -69 19 26 16 41
-21 103 -40 67 -68 121 -62 121 2 0 29 -45 61 -100z m-68 -12 c-3 -7 -5 -2 -5
12 0 14 2 19 5 13 2 -7 2 -19 0 -25z m267 7 c12 -31 -17 -62 -43 -45 -10 6 -9
13 4 34 20 30 30 33 39 11z m113 -63 c-16 -3 -74 31 -89 53 -19 26 -4 22 49
-12 37 -25 51 -39 40 -41z m-427 -32 c32 0 44 -6 68 -36 l30 -36 -20 -20 c-23
-23 -21 -66 7 -121 l16 -32 -36 35 c-33 32 -50 65 -21 41 12 -10 13 -6 9 29
-4 30 -1 45 11 59 17 18 17 20 -3 40 -11 11 -37 23 -58 27 -21 4 -46 11 -55
16 -13 6 -18 5 -18 -6 0 -22 39 -118 56 -137 15 -17 20 -60 5 -43 -13 13 -56
118 -75 182 l-15 53 30 -25 c21 -18 42 -26 69 -26z m746 -2 c28 -30 44 -56 44
-72 0 -31 -25 -35 -33 -6 -3 11 -1 20 5 20 20 0 -29 63 -59 76 -44 19 -59 18
-43 -1 11 -13 8 -14 -19 -9 -28 6 -31 4 -31 -17 0 -52 86 -129 146 -129 11 0
53 -34 98 -79 43 -44 96 -87 116 -96 33 -15 43 -29 83 -113 43 -91 67 -157 82
-227 5 -23 -6 -12 -52 50 -88 120 -118 165 -146 221 -14 28 -37 65 -51 82 -32
37 -34 52 -3 26 l22 -19 -19 22 c-10 13 -22 20 -26 18 -4 -3 -13 2 -20 10 -7
8 -9 15 -6 15 15 0 -35 59 -55 65 -36 12 -31 -1 12 -29 22 -15 38 -30 35 -33
-3 -4 -16 3 -29 14 -21 19 -86 52 -104 54 -4 0 -33 17 -63 37 -52 35 -55 41
-63 90 -13 80 -8 85 69 80 64 -4 68 -6 110 -50z m-249 -78 c47 -53 63 -78 63
-100 0 -27 -8 -21 -105 84 -58 63 -105 119 -105 126 0 23 86 -41 147 -110z
m-113 32 l49 -57 -51 49 c-81 78 -73 45 13 -49 42 -47 73 -85 68 -84 -4 0 -48
45 -96 100 -85 95 -88 99 -60 99 22 0 39 -13 77 -58z m287 14 c1 -6 1 -17 0
-23 -1 -7 3 -13 8 -13 18 0 23 21 9 37 -7 9 2 6 20 -7 35 -26 36 -28 23 -49
-14 -22 -59 -5 -81 31 -10 17 -17 35 -14 39 6 11 34 0 35 -15z m-745 -73 c-4
-4 -36 73 -35 85 0 4 9 -13 20 -37 11 -24 18 -46 15 -48z m373 -24 c71 -78 91
-107 91 -130 0 -25 -4 -29 -29 -29 -23 0 -43 15 -94 67 -36 37 -64 69 -62 71
2 3 29 -23 60 -56 31 -34 65 -64 77 -68 30 -9 43 9 29 43 -14 33 -144 173
-160 173 -6 0 -16 -11 -23 -25 -8 -19 -8 -28 3 -42 12 -15 10 -15 -9 1 -12 11
-22 23 -22 28 0 8 41 68 46 68 2 0 44 -45 93 -101z m354 -42 c-3 -5 -12 -2
-21 6 -33 28 -46 32 -38 11 4 -10 14 -53 22 -94 11 -58 12 -81 3 -103 -9 -21
-9 -34 0 -53 6 -14 7 -23 2 -20 -4 3 -14 20 -22 38 -10 24 -10 33 -1 36 27 9
0 179 -37 231 l-23 31 60 -37 c33 -21 57 -42 55 -46z m279 -46 c50 -72 50 -74
20 -55 -18 10 -54 41 -82 69 -45 46 -50 54 -44 83 l7 32 24 -27 c13 -16 47
-61 75 -102z m-718 24 c43 -47 72 -85 66 -85 -6 0 -43 5 -81 12 -67 11 -71 13
-90 49 -29 58 -21 109 16 109 7 0 47 -38 89 -85z m294 11 c61 -66 81 -104 67
-125 -7 -12 -55 -15 -55 -3 0 4 -3 18 -7 32 l-6 25 21 -25 c11 -14 23 -22 27
-18 16 15 -8 58 -67 123 -35 38 -58 66 -52 64 6 -2 38 -35 72 -73z m-554 27
c9 -18 14 -33 12 -33 -6 0 -36 55 -36 66 0 11 5 3 24 -33z m793 -53 c58 -26
121 -93 162 -170 19 -36 50 -87 70 -115 50 -68 75 -109 64 -102 -14 9 -127
176 -152 225 -42 83 -134 162 -188 162 -10 0 -25 5 -33 10 -28 18 32 11 77
-10z m-746 -35 c7 -13 3 -12 -10 5 -11 14 -21 30 -21 35 0 11 14 -7 31 -40z
m69 -3 c-15 -5 -40 17 -40 36 0 12 6 10 26 -9 14 -13 20 -25 14 -27z m430 17
c15 -28 5 -23 -15 7 -9 15 -12 23 -6 20 6 -4 16 -16 21 -27z m-435 -113 l17
-31 -20 24 c-11 14 -27 38 -37 55 l-17 31 20 -24 c11 -14 27 -38 37 -55z m39
52 c1 -7 12 -41 23 -76 11 -34 19 -61 18 -60 -10 10 -95 138 -95 143 0 11 51
4 54 -7z m222 -27 c60 -11 135 -22 167 -26 55 -6 58 -8 83 -51 14 -24 24 -50
21 -57 -2 -6 -34 -20 -70 -30 l-65 -19 11 -33 c10 -35 5 -65 -13 -65 -7 0 -6
6 1 19 9 13 9 26 1 50 -10 28 -9 33 11 45 12 8 39 18 60 22 21 3 41 12 44 19
8 21 -26 76 -45 73 -9 -1 -23 1 -30 6 -8 4 -71 17 -140 27 -70 10 -139 22
-154 25 -21 4 -28 2 -28 -10 0 -8 5 -18 10 -21 6 -3 10 -12 10 -18 0 -7 -9 2
-20 18 -11 17 -20 33 -20 38 0 12 50 8 166 -12z m-136 -86 c23 -41 66 -112 97
-157 l55 -83 -59 58 c-57 56 -123 164 -139 230 -10 44 2 31 46 -48z m94 46 c4
-5 -3 -7 -14 -4 -23 6 -26 13 -6 13 8 0 17 -4 20 -9z m-152 -78 c25 -32 60
-76 78 -98 17 -22 9 -15 -19 15 -50 54 -116 140 -108 140 2 0 24 -26 49 -57z
m108 5 c0 -17 -10 -6 -25 25 l-16 32 20 -25 c11 -14 21 -28 21 -32z m80 22 c0
-5 -5 -10 -11 -10 -5 0 -7 5 -4 10 3 6 8 10 11 10 2 0 4 -4 4 -10z m450 -83
l0 -38 -37 7 c-21 3 -42 11 -48 16 -6 6 4 7 28 3 l37 -7 0 43 c0 32 3 40 10
29 5 -8 10 -32 10 -53z m-121 5 c1 -7 -13 -21 -30 -31 l-31 -19 44 -16 43 -15
-50 6 c-82 9 -100 36 -35 53 39 11 43 16 41 55 l-1 20 9 -20 c5 -11 10 -26 10
-33z m-381 5 c11 -19 27 -47 37 -63 l17 -29 -20 25 c-24 29 -66 100 -59 100 3
0 14 -15 25 -33z m563 -25 c17 -26 21 -36 10 -23 -31 34 -26 14 15 -62 l35
-67 -24 0 c-44 0 -137 23 -148 36 -8 10 -8 14 -1 14 6 0 13 -4 16 -9 3 -5 27
-12 52 -16 26 -3 53 -9 60 -12 19 -7 18 27 -1 54 -12 17 -22 21 -48 17 -17 -3
-43 -1 -57 5 -22 10 -20 10 19 8 43 -2 45 -1 52 31 5 25 2 39 -15 59 -11 15
-15 24 -8 20 6 -5 26 -29 43 -55z m-286 -74 c8 -37 25 -62 87 -127 49 -51 93
-88 120 -100 27 -11 67 -45 106 -87 55 -60 60 -69 43 -72 -24 -4 -136 27 -128
35 3 3 22 0 41 -7 20 -6 45 -10 56 -8 18 3 16 9 -24 54 -47 53 -118 95 -152
90 -22 -4 -56 22 -48 36 4 6 -24 41 -61 78 -61 62 -68 73 -72 115 -5 62 18 57
32 -7z m345 -9 c15 -28 5 -23 -15 7 -9 15 -12 23 -6 20 6 -4 16 -16 21 -27z
m-495 -129 c33 -29 81 -69 108 -88 26 -19 47 -36 47 -38 0 -21 -282 222 -294
253 -4 9 13 -3 36 -28 24 -24 70 -69 103 -99z m-50 120 c10 -11 16 -20 13 -20
-3 0 -13 9 -23 20 -10 11 -16 20 -13 20 3 0 13 -9 23 -20z m294 -58 c-5 -2 -5
-11 -1 -20 3 -9 -8 -1 -26 19 -42 48 -41 69 1 32 18 -15 30 -29 26 -31z m77
11 c24 -27 44 -43 44 -37 0 11 183 -16 197 -29 9 -10 -8 -9 -84 7 -37 8 -79
13 -93 11 -18 -2 -37 9 -67 38 -25 24 -47 37 -57 34 -8 -3 -20 1 -26 9 -10 12
-8 14 15 14 20 0 39 -13 71 -47z m393 -32 c25 -38 31 -59 31 -100 0 -52 -1
-53 -25 -47 -14 4 -45 9 -70 13 -25 3 -48 10 -52 15 -3 7 7 7 28 2 19 -4 50
-8 69 -9 33 0 35 2 38 39 3 32 -4 49 -39 100 -24 33 -36 55 -27 48 9 -8 31
-35 47 -61z m-166 10 c27 -46 14 -38 -18 12 -16 23 -22 37 -14 30 8 -6 22 -25
32 -42z m-562 22 c13 -16 12 -17 -3 -4 -17 13 -22 21 -14 21 2 0 10 -8 17 -17z
m135 -15 l29 -33 -35 30 c-19 17 -37 31 -39 33 -2 1 0 2 5 2 6 0 23 -15 40
-32z m-71 -58 c27 -27 47 -50 44 -50 -3 0 -27 23 -54 50 -27 28 -47 50 -44 50
3 0 27 -22 54 -50z m150 -12 l40 -42 -42 34 c-35 30 -52 50 -40 50 2 0 21 -19
42 -42z m186 -48 c33 -13 57 -25 55 -28 -3 -2 -31 6 -63 18 -54 22 -123 73
-123 92 0 5 16 -7 35 -25 20 -19 63 -45 96 -57z m-256 -10 c10 -11 16 -20 13
-20 -3 0 -13 9 -23 20 -10 11 -16 20 -13 20 3 0 13 -9 23 -20z m71 -51 c4 -8
1 -8 -14 0 -12 6 -24 16 -28 22 -4 8 -1 8 14 0 12 -6 24 -16 28 -22z m355 -5
c52 -20 104 -38 117 -41 36 -9 25 13 -15 30 l-38 15 40 -5 c70 -8 76 -14 52
-47 -12 -17 -18 -16 -107 18 -100 38 -159 64 -149 65 4 1 49 -15 100 -35z m44
-55 c78 -30 81 -34 42 -53 -52 -24 -79 -20 -113 16 -23 26 -24 29 -4 12 38
-32 46 -35 74 -24 39 14 32 26 -29 49 -62 23 -79 26 -70 11 13 -22 -25 3 -40
26 l-15 24 52 -21 c29 -12 76 -30 103 -40z m-389 20 c3 -6 -5 -3 -20 6 -14 10
-26 19 -26 22 0 7 39 -17 46 -28z m44 10 l25 -20 -32 16 c-18 8 -33 18 -33 20
0 10 16 4 40 -16z m30 -55 c0 -2 -13 2 -30 11 -16 9 -30 18 -30 21 0 2 14 -2
30 -11 17 -9 30 -18 30 -21z m50 15 c26 -15 29 -18 10 -13 -27 7 -71 34 -55
34 6 -1 26 -10 45 -21z m10 -39 c19 -11 29 -19 23 -20 -7 0 -27 9 -45 20 -42
25 -24 25 22 0z m130 -47 l45 -13 -44 5 c-24 3 -55 12 -70 21 l-26 15 25 -7
c14 -4 45 -14 70 -21z"/>
<path d="M8853 12024 c-46 -39 -51 -50 -29 -79 14 -19 15 -19 34 -2 11 10 40
24 64 31 54 17 60 39 16 66 -18 11 -35 20 -38 20 -3 0 -24 -16 -47 -36z"/>
<path d="M9390 11567 c0 -12 7 -33 16 -45 18 -26 74 -58 74 -42 0 5 -5 10 -10
10 -6 0 -25 23 -42 50 -17 28 -33 50 -34 50 -2 0 -4 -10 -4 -23z"/>
<path d="M9710 11304 c0 -24 196 -322 205 -312 7 7 -21 90 -58 170 -28 61 -45
83 -84 112 -46 34 -63 42 -63 30z"/>
<path d="M9201 11593 c6 -16 133 -153 141 -153 18 0 5 22 -48 80 -53 56 -101
95 -93 73z"/>
<path d="M9661 11450 c0 -14 53 -80 64 -80 8 0 -10 31 -39 65 -16 19 -25 24
-25 15z"/>
<path d="M8922 11453 c-11 -21 2 -76 21 -91 16 -14 117 -27 117 -16 0 14 -106
124 -118 124 -6 0 -15 -8 -20 -17z"/>
<path d="M8890 11279 c7 -11 14 -18 17 -15 8 8 -5 36 -17 36 -7 0 -7 -6 0 -21z"/>
<path d="M9000 11166 c0 -15 53 -106 61 -106 5 0 -5 24 -23 53 -37 62 -38 63
-38 53z"/>
<path d="M9460 10826 c0 -2 7 -9 15 -16 13 -11 14 -10 9 4 -5 14 -24 23 -24
12z"/>
<path d="M8890 12125 c14 -8 30 -14 35 -14 6 0 -1 6 -15 14 -14 8 -29 14 -35
14 -5 0 1 -6 15 -14z"/>
<path d="M9002 12048 c28 -36 31 -38 113 -74 33 -15 84 -42 113 -60 67 -43 66
-31 -1 22 -50 39 -226 144 -242 144 -4 0 4 -14 17 -32z"/>
<path d="M6635 9600 c-22 -4 -121 -13 -220 -20 -169 -11 -262 -30 -300 -60 -5
-4 -21 -11 -35 -15 -22 -7 -61 -23 -165 -69 -123 -55 -233 -114 -260 -139 -11
-11 -44 -34 -72 -53 -56 -36 -60 -45 -41 -105 l11 -39 26 17 c14 9 35 25 46
36 41 39 161 125 185 132 14 4 43 15 65 25 56 25 117 50 121 50 2 0 4 -3 4 -8
0 -4 -17 -15 -37 -25 -45 -21 -68 -35 -108 -63 -17 -11 -37 -24 -45 -27 -8 -4
-55 -33 -105 -65 -101 -65 -101 -65 -75 -177 6 -27 22 -104 35 -170 13 -66 34
-158 45 -205 12 -47 26 -107 32 -133 13 -58 36 -74 66 -47 29 27 35 74 18 145
-31 131 -48 193 -72 264 -23 66 -24 78 -14 122 14 57 40 87 40 46 0 -14 -4
-36 -9 -49 -4 -13 -11 -35 -14 -50 -6 -22 -4 -25 11 -21 18 4 17 7 107 -364
l13 -52 -66 -81 c-36 -45 -68 -77 -73 -73 -4 4 -16 49 -28 98 -12 50 -25 104
-30 120 -5 17 -12 46 -16 65 -10 53 -74 316 -81 334 -4 11 -1 16 10 16 25 0
19 13 -28 59 -24 24 -44 52 -44 64 0 12 -4 33 -10 47 -8 21 -16 25 -46 24 -21
-1 -46 -10 -56 -19 -18 -16 -18 -20 -4 -47 20 -38 5 -57 -21 -28 -24 26 -39
25 -79 -6 -30 -24 -32 -30 -26 -65 8 -43 -4 -54 -14 -14 -9 37 -26 31 -87 -28
-62 -61 -91 -108 -71 -114 21 -8 13 -23 -11 -23 -24 0 -55 -29 -78 -71 -7 -13
-17 -29 -23 -35 -6 -7 -42 -56 -81 -109 -38 -53 -78 -106 -88 -117 -23 -28
-97 -185 -97 -208 0 -7 -7 -24 -15 -38 -8 -15 -37 -86 -64 -158 -27 -73 -59
-152 -70 -176 -21 -47 -29 -98 -61 -378 -11 -96 -23 -204 -28 -240 -4 -36 -4
-83 -1 -105 4 -22 19 -114 33 -205 15 -91 34 -210 42 -265 9 -55 20 -104 24
-110 4 -5 63 -118 130 -250 99 -196 130 -248 168 -284 96 -89 200 -188 281
-266 71 -67 175 -135 187 -122 4 4 -181 184 -309 301 -78 71 -92 89 -136 180
-27 56 -47 103 -44 106 6 6 36 -29 88 -105 99 -143 285 -340 343 -364 18 -8
32 -17 32 -22 0 -5 6 -9 13 -9 7 0 22 -8 33 -17 10 -10 33 -25 49 -33 17 -8
32 -18 35 -21 9 -10 55 -33 63 -31 4 1 7 -2 7 -6 0 -20 232 -104 325 -117 28
-4 57 -11 65 -15 8 -4 37 -11 65 -15 82 -11 65 -15 -59 -15 -109 0 -123 2
-188 31 -38 17 -72 28 -75 25 -3 -3 7 -8 21 -12 14 -3 26 -11 25 -18 -1 -6 1
-23 5 -37 7 -25 12 -27 89 -33 45 -3 186 -9 312 -12 l230 -6 195 66 c107 37
251 86 319 108 69 22 130 45 135 49 18 15 82 63 106 79 12 8 117 86 233 174
l212 158 102 137 c56 75 106 141 110 146 56 69 94 130 85 133 -13 4 19 55 56
87 68 60 80 75 92 111 7 21 16 44 20 49 3 6 19 46 35 90 15 44 34 94 41 110
20 47 61 157 69 185 4 14 13 39 20 55 7 17 17 42 23 57 6 16 9 41 6 57 -5 23
-2 29 15 34 18 4 21 13 21 60 0 31 -4 59 -10 62 -15 9 -12 76 4 94 15 18 35
180 25 208 -4 10 -3 23 1 28 4 6 10 31 13 57 5 35 3 51 -8 62 -19 18 -20 72
-2 83 8 4 16 19 20 32 8 34 -29 173 -53 192 -18 16 -40 58 -40 80 0 5 9 9 19
9 17 0 18 4 9 38 -13 50 -43 180 -64 272 -9 41 -19 77 -23 80 -3 3 -15 21 -25
40 -11 19 -24 40 -28 45 -5 6 -30 44 -56 85 -190 299 -225 349 -266 378 -42
30 -111 48 -121 31 -3 -4 28 -33 69 -63 47 -35 89 -77 114 -113 53 -78 138
-224 112 -193 -176 212 -314 334 -460 407 -19 10 -41 24 -48 31 -7 6 -17 12
-22 12 -4 0 -46 18 -92 39 -45 22 -96 43 -113 47 -16 4 -34 10 -40 14 -11 8
-94 25 -200 41 -227 35 -368 38 -493 9 -151 -34 -215 -49 -294 -68 -43 -11
-78 -16 -78 -11 0 5 5 9 11 9 11 0 106 41 154 67 20 11 83 20 195 29 91 7 226
18 300 25 130 12 138 11 210 -10 150 -44 166 -49 240 -66 41 -9 84 -20 95 -25
11 -5 36 -12 55 -15 l35 -6 -28 25 c-15 14 -40 29 -55 32 -15 3 -34 8 -42 12
-8 3 -44 13 -80 23 -177 47 -221 59 -290 80 -80 24 -200 33 -265 19z m-545
-209 c0 -5 -7 -12 -16 -15 -14 -5 -15 -4 -4 9 14 17 20 19 20 6z m-45 -21 c-3
-5 -14 -10 -23 -9 -14 0 -13 2 3 9 27 11 27 11 20 0z m778 -41 c-10 -17 -40
-51 -66 -76 -41 -39 -57 -47 -97 -51 -40 -4 -51 -1 -66 17 -25 28 -31 27 -44
-13 -11 -35 -53 -62 -135 -87 -63 -19 -92 -37 -110 -67 -13 -21 -32 -33 -79
-46 -77 -23 -137 -49 -253 -108 -51 -26 -94 -44 -97 -40 -13 21 -17 80 -6 87
8 5 -4 23 -36 56 -33 33 -43 49 -32 49 35 0 67 -24 82 -59 32 -80 33 -80 127
-34 46 22 117 52 157 67 40 14 96 43 125 64 28 21 63 43 77 49 91 40 126 59
141 74 30 30 59 41 107 39 75 -4 78 -3 143 55 69 62 89 70 62 24z m107 -61 c0
-11 61 -28 101 -28 42 0 51 -13 20 -30 -31 -16 -93 -12 -125 10 -37 23 -76 86
-76 120 1 23 3 22 40 -20 22 -25 40 -48 40 -52z m165 -146 l0 -86 100 -50 c55
-28 102 -53 105 -56 3 -3 32 -23 64 -45 33 -22 67 -47 76 -55 9 -8 37 -34 62
-57 52 -47 131 -141 195 -230 27 -37 118 -218 128 -253 4 -14 11 -29 15 -35
16 -20 59 -195 90 -366 19 -106 12 -371 -14 -514 -23 -126 -48 -228 -65 -270
-5 -11 -18 -47 -31 -80 -41 -110 -130 -285 -193 -378 -33 -51 -64 -94 -67 -97
-3 -3 -13 -16 -22 -30 -37 -59 -202 -231 -296 -308 -158 -131 -354 -240 -542
-302 -200 -67 -389 -90 -576 -71 -64 6 -125 16 -135 21 -10 6 -27 10 -39 10
-27 0 -156 43 -227 76 -30 13 -58 24 -63 24 -6 0 -10 4 -10 8 0 5 -12 14 -27
21 -28 12 -98 57 -119 76 -7 6 -31 26 -55 45 -99 79 -190 185 -281 328 -64
100 -144 303 -177 451 -41 180 -50 449 -21 606 34 183 44 227 62 285 11 36 31
94 45 130 25 67 132 291 142 300 4 3 24 34 46 70 21 36 45 71 52 78 33 34 23
160 -24 274 -12 32 -23 68 -23 82 0 33 -25 53 -45 36 -28 -23 -17 9 21 64 20
28 68 76 107 106 38 30 88 72 111 93 22 20 44 37 49 37 8 0 4 -31 -13 -113 -7
-31 -5 -37 7 -35 17 3 21 -11 92 -312 17 -74 41 -174 53 -223 12 -48 19 -89
16 -92 -8 -8 -161 14 -168 25 -6 10 -15 44 -70 273 -25 103 -29 131 -19 143
10 12 5 23 -31 59 -24 25 -46 43 -48 40 -3 -2 -8 -21 -13 -42 -4 -21 -12 -54
-17 -74 -8 -32 -7 -36 8 -32 14 4 22 -16 49 -126 30 -127 31 -132 14 -159 -10
-15 -20 -29 -23 -32 -24 -23 -102 -151 -155 -257 -97 -190 -172 -429 -196
-628 -13 -101 -6 -435 10 -500 6 -22 15 -62 20 -88 71 -331 286 -643 572 -829
295 -193 729 -234 1104 -105 33 11 65 23 70 27 6 4 32 15 59 25 70 26 265 140
323 190 7 5 43 35 80 65 79 63 238 232 289 305 19 28 48 69 64 93 17 24 30 46
30 49 0 4 6 14 14 22 17 19 111 206 121 241 4 14 11 30 15 35 9 13 44 114 69
200 62 217 79 521 41 743 -19 111 -64 276 -80 297 -4 6 -11 21 -15 35 -17 56
-77 172 -129 249 -85 124 -165 210 -291 309 -54 43 -217 130 -290 155 -33 12
-40 19 -38 38 1 25 29 153 38 178 12 31 20 -6 20 -87z m-232 43 c22 -19 55
-38 74 -41 18 -3 35 -9 37 -13 6 -9 -19 -112 -32 -138 -10 -18 -22 -21 -100
-22 -164 -3 -412 -61 -497 -117 -33 -21 -42 -12 -28 29 7 17 17 60 24 94 l12
63 85 27 c47 15 97 37 111 49 19 15 44 23 93 26 57 5 75 11 115 41 26 20 52
36 56 36 5 1 27 -15 50 -34z m-598 -247 c-17 -77 -107 -449 -115 -478 -21 -72
-30 -127 -30 -185 0 -57 -2 -61 -27 -72 -16 -6 -84 -38 -152 -72 -69 -33 -127
-59 -129 -56 -3 3 -13 42 -23 87 l-18 82 32 40 c17 23 62 78 100 123 l69 83
-17 67 c-9 38 -25 106 -36 153 l-20 84 22 17 c44 33 222 116 269 126 17 3 33
10 36 14 3 5 14 9 25 9 15 0 18 -5 14 -22z m865 -35 c144 -68 347 -236 425
-353 17 -25 35 -50 40 -56 17 -19 80 -142 75 -147 -3 -3 -36 -1 -75 4 -182 23
-201 23 -262 -2 -32 -13 -62 -27 -68 -31 -39 -30 -80 -71 -122 -123 -26 -33
-56 -69 -65 -80 -10 -11 -24 -28 -31 -39 -13 -18 -16 -16 -60 27 -26 25 -47
50 -47 55 0 5 23 22 51 37 28 14 61 35 73 46 l21 20 3 -20 c2 -12 7 -21 10
-21 4 0 36 26 72 58 36 32 81 68 100 79 56 34 141 54 217 52 83 -3 96 2 83 37
-29 76 -204 266 -306 331 -177 114 -189 116 -212 22 -33 -134 -40 -172 -46
-284 -8 -132 -13 -117 62 -215 l23 -30 -23 0 c-37 0 -108 75 -108 114 0 113
22 308 40 358 13 37 20 83 20 129 l0 71 27 -7 c15 -3 52 -18 83 -32z m-185
-46 c4 -27 1 -62 -8 -93 l-14 -49 -54 0 -54 0 -15 -81 c-17 -94 -25 -106 -80
-124 -22 -7 -40 -17 -40 -22 0 -4 -5 -8 -11 -8 -7 0 -63 -25 -125 -56 -63 -30
-122 -54 -131 -52 -29 5 -43 81 -26 148 7 30 24 102 37 160 35 153 36 154 93
169 128 32 233 48 350 50 l72 1 6 -43z m1035 3 c0 -5 -2 -10 -4 -10 -3 0 -8 5
-11 10 -3 6 -1 10 4 10 6 0 11 -4 11 -10z m-1600 -83 c0 -6 -5 -28 -11 -47 -5
-19 -19 -71 -29 -115 -10 -44 -24 -100 -30 -124 -7 -30 -8 -57 -1 -85 5 -23
19 -79 31 -126 12 -47 32 -130 45 -185 36 -153 62 -256 75 -300 7 -21 10 -65
8 -96 -3 -45 -11 -64 -37 -98 -44 -55 -78 -71 -150 -71 -68 0 -82 12 -54 43
67 76 90 187 59 288 -9 30 -23 83 -31 119 -13 59 -33 143 -65 270 -12 46 -9
63 36 250 9 36 23 99 32 140 20 89 26 99 72 127 42 25 50 27 50 10z m1715
-102 c13 -22 26 -56 29 -75 3 -19 3 -28 0 -20 -11 27 -55 114 -76 150 l-20 35
22 -25 c12 -13 32 -42 45 -65z m-1198 -27 c14 -20 4 -218 -11 -218 -27 0 -46
39 -56 111 -15 119 -15 119 24 119 18 0 38 -6 43 -12z m-1897 -172 c0 -5 -67
-130 -91 -170 -15 -25 -19 -27 -25 -13 -3 10 -2 23 4 30 5 6 12 24 15 38 4 14
14 35 24 47 10 12 27 33 38 47 18 22 35 32 35 21z m1710 -48 c0 -6 -5 -26 -12
-44 -9 -25 -24 -38 -78 -63 -37 -17 -79 -31 -92 -31 -28 0 -67 25 -56 36 9 8
220 112 231 113 4 1 7 -4 7 -11z m158 -77 c45 -43 82 -83 82 -89 0 -8 -18 -12
-46 -12 -41 0 -51 5 -96 48 -49 47 -50 49 -43 90 4 23 10 42 13 42 4 0 44 -36
90 -79z m-1444 -56 c7 -42 9 -45 44 -50 20 -3 62 -10 93 -15 30 -6 68 -10 85
-10 16 0 34 -4 41 -8 9 -6 43 -129 43 -157 0 -1 -21 -6 -47 -10 -27 -3 -73
-19 -103 -33 -56 -28 -170 -133 -170 -158 0 -8 -4 -14 -9 -14 -6 0 -20 -31
-32 -70 -32 -98 -33 -97 -65 40 -9 41 -18 81 -20 88 -5 17 -57 -16 -111 -69
-24 -23 -43 -38 -43 -33 0 10 36 108 68 189 51 127 187 355 212 355 4 0 11
-20 14 -45z m1346 -65 c14 -14 34 -32 46 -40 12 -9 27 -39 37 -75 8 -33 23
-85 31 -115 26 -90 21 -139 -19 -188 -56 -70 -68 -81 -75 -77 -4 3 -11 22 -14
42 -4 21 -13 61 -21 88 -13 48 -35 136 -76 310 l-18 80 22 17 c24 19 30 16 87
-42z m723 49 c186 -27 190 -28 219 -56 94 -90 33 -273 -92 -273 l-30 0 25 50
c14 27 25 60 26 72 l0 23 9 -22 c11 -28 36 -30 50 -4 14 28 13 58 -6 97 -18
38 -65 58 -124 52 -35 -3 -35 -3 -33 -48 4 -82 10 -93 47 -88 28 3 32 1 28
-14 -6 -23 -75 -86 -108 -98 -41 -16 -89 -11 -117 10 -69 55 -25 175 59 158
25 -5 35 -41 19 -72 -17 -31 -7 -33 29 -5 59 46 14 139 -67 139 -68 0 -115
-49 -136 -141 -8 -35 -6 -50 11 -85 27 -58 72 -83 175 -97 l83 -11 21 -70 c36
-126 60 -199 74 -227 18 -33 77 -85 121 -107 19 -8 34 -19 34 -22 0 -32 -48
-218 -81 -313 -39 -111 -142 -330 -171 -361 -7 -8 -24 -33 -38 -56 -23 -38
-25 -39 -30 -18 -3 13 -5 138 -5 278 1 236 3 262 25 345 34 130 33 250 -2 327
-28 60 -89 134 -123 149 -11 5 -27 13 -35 19 -8 5 -33 14 -55 20 -30 7 -60 30
-123 93 l-83 83 51 65 c109 138 149 177 203 198 62 24 60 24 150 10z m-970
-55 c32 -1 61 -4 64 -7 3 -3 11 -32 18 -64 7 -32 37 -151 66 -264 50 -199 52
-209 39 -255 -20 -70 -81 -130 -142 -139 -26 -4 -63 -3 -83 1 l-35 9 34 48
c19 26 42 76 51 111 19 70 21 61 -66 404 -45 176 -45 177 -21 166 9 -5 43 -9
75 -10z m-369 -136 c51 -192 78 -326 72 -367 -7 -54 -64 -127 -114 -148 -38
-16 -167 -9 -179 10 -3 6 -12 35 -19 66 -7 31 -29 119 -48 196 -20 77 -36 145
-36 151 0 5 44 30 97 55 53 24 115 54 137 66 63 34 73 31 90 -29z m915 -173
c55 -56 81 -90 77 -100 -3 -8 -12 -15 -20 -15 -8 0 -21 -3 -30 -6 -11 -4 -16
0 -16 14 0 11 -9 30 -19 43 -26 32 -46 19 -85 -55 -43 -80 -179 -261 -243
-323 -30 -28 -78 -65 -107 -81 -55 -32 -60 -39 -91 -142 -21 -67 -49 -117 -84
-148 -26 -24 -101 -62 -120 -62 -5 0 -33 -5 -61 -11 -57 -12 -66 -34 -18 -44
18 -4 52 -16 75 -26 38 -16 47 -27 72 -83 34 -75 38 -77 202 -100 58 -9 113
-18 122 -22 28 -10 73 45 81 100 9 60 -1 73 -45 57 -70 -24 -227 -6 -266 31
-18 17 -23 32 -22 67 l1 46 14 -46 c17 -54 19 -55 159 -65 120 -9 138 1 232
125 2 2 6 2 9 -2 3 -3 -3 -43 -14 -89 -11 -46 -31 -127 -43 -180 -13 -55 -28
-98 -35 -98 -6 0 -36 5 -65 11 -30 6 -108 19 -174 29 -169 26 -166 24 -185
106 -19 78 -5 71 -184 99 -54 8 -102 18 -106 20 -10 6 -18 65 -10 70 6 4 30 8
218 40 51 8 100 21 109 28 68 55 102 120 122 234 12 71 13 71 49 78 74 14 144
69 219 172 10 14 29 40 43 58 14 18 32 43 40 55 8 12 29 41 45 64 51 69 60 95
59 168 0 37 3 68 6 68 3 0 43 -38 89 -85z m-1305 23 c7 -40 9 -50 35 -158 11
-47 25 -101 31 -120 18 -62 14 -73 -22 -67 -18 4 -85 13 -148 22 -144 19 -243
37 -252 45 -9 7 7 70 33 127 24 53 103 133 160 161 29 15 63 22 100 22 56 0
57 0 63 -32z m2049 -15 c12 -71 20 -289 13 -336 -6 -37 -10 -45 -24 -40 -37
13 -90 84 -105 141 -8 31 -22 81 -30 111 -9 30 -14 58 -11 62 2 4 24 17 49 29
25 12 53 33 63 46 24 34 39 29 45 -13z m-3078 -60 c-7 -19 -9 -26 -25 -92 -16
-65 -26 -80 -35 -52 -10 31 33 161 52 161 10 0 13 -6 8 -17z m514 -124 c6 -28
9 -54 7 -58 -7 -11 -89 2 -93 15 -4 12 53 94 66 94 5 0 14 -23 20 -51z m1957
22 c87 -11 136 -33 186 -84 80 -82 87 -193 29 -422 -6 -23 -11 -178 -11 -367
l0 -326 -27 -34 c-64 -76 -208 -208 -227 -208 -6 1 -31 5 -56 10 -25 6 -94 19
-155 29 -60 11 -123 24 -140 29 l-30 9 28 12 c30 12 116 3 256 -25 67 -14 76
-14 109 2 45 21 125 96 166 154 l31 45 5 320 c6 299 8 329 33 448 26 121 26
131 13 183 -27 103 -84 157 -184 176 -66 12 -142 43 -142 58 0 6 10 8 23 5 12
-3 54 -9 93 -14z m-1998 -156 c23 -4 42 -9 42 -12 0 -2 -15 -23 -33 -46 -46
-57 -87 -129 -122 -209 -16 -38 -34 -68 -39 -68 -10 0 -3 131 14 250 11 82 27
104 70 96 14 -3 44 -8 68 -11z m417 -65 c77 -12 196 -30 265 -40 313 -46 498
-72 533 -77 36 -5 38 -7 33 -32 -4 -14 -12 -53 -19 -87 -23 -106 -52 -131
-175 -150 -435 -66 -414 -61 -424 -109 -5 -21 -15 -46 -23 -55 -8 -9 -15 -21
-15 -26 0 -16 -69 -73 -107 -89 -19 -8 -50 -15 -67 -15 -30 1 -30 1 -11 16 11
9 39 25 61 35 46 21 94 70 123 127 41 79 81 99 266 127 271 41 305 55 327 140
12 43 11 48 -6 61 -27 19 -46 1 -46 -44 0 -67 -61 -97 -95 -46 -15 24 -15 28
-1 59 34 71 49 66 -329 121 -93 13 -203 29 -244 35 -40 5 -110 16 -154 24
-121 21 -117 27 -183 -270 -43 -193 -56 -308 -50 -450 5 -122 14 -182 36 -230
5 -11 15 -36 23 -55 20 -50 97 -148 159 -204 66 -60 197 -147 263 -176 28 -12
64 -28 80 -35 56 -25 197 -58 254 -59 l56 -1 3 35 c5 48 -27 191 -48 217 -16
20 -82 55 -155 83 -24 9 -27 7 -37 -21 -6 -17 -14 -27 -18 -22 -4 4 -31 103
-60 218 -28 116 -57 224 -63 242 -10 30 -8 34 30 72 22 22 54 67 72 101 30 56
35 60 67 60 22 0 37 -6 41 -16 10 -25 -10 -58 -95 -152 -19 -23 -30 -43 -26
-52 4 -8 15 -50 25 -92 11 -43 28 -115 40 -160 11 -46 23 -96 27 -112 5 -20
16 -32 32 -37 61 -18 146 -60 157 -76 7 -10 24 -70 37 -133 14 -63 30 -133 35
-155 6 -22 11 -43 11 -47 0 -10 -91 -9 -155 2 -132 21 -270 67 -360 117 -22
12 -53 30 -69 39 -61 34 -187 137 -230 187 -56 67 -113 157 -122 193 -4 16
-10 34 -14 39 -11 14 -28 107 -35 190 -11 119 25 413 65 540 5 17 21 80 35
140 15 61 28 116 31 124 5 16 37 13 249 -19z m-335 -45 c0 -8 -6 -34 -14 -57
-13 -40 -60 -243 -86 -368 -6 -30 -14 -115 -17 -187 -3 -73 -9 -133 -13 -133
-13 0 -50 113 -70 215 -13 60 -7 168 9 189 4 6 14 34 20 61 31 127 171 357
171 280z m361 -74 c16 -16 29 -37 29 -46 0 -13 -8 -10 -35 14 -20 17 -44 31
-55 31 -26 0 -73 -19 -82 -33 -6 -9 -8 -9 -8 0 0 7 11 24 25 38 37 36 87 34
126 -4z m-58 -99 c23 3 50 8 61 13 16 7 17 6 7 -13 -6 -12 -29 -26 -52 -32
-34 -9 -45 -8 -72 7 -21 13 -33 28 -35 46 l-3 27 26 -26 c22 -22 33 -25 68
-22z m-946 -63 c7 -115 7 -259 1 -259 -5 0 -8 1 -8 3 0 1 -7 40 -15 87 -16 92
-11 214 9 207 6 -2 12 -19 13 -38z m2263 -18 c0 -5 -23 -37 -51 -72 -27 -35
-60 -76 -72 -92 -43 -54 -63 -59 -184 -42 -59 9 -112 20 -117 25 -16 16 42 23
129 16 100 -8 126 2 176 66 59 75 74 90 94 98 26 11 25 11 25 1z m48 -28 c10
-22 10 -79 1 -283 -13 -305 -17 -322 -65 -345 -30 -14 -46 -15 -98 -7 -33 6
-117 19 -186 30 -69 12 -133 24 -142 27 -9 4 -35 -3 -58 -15 -23 -12 -44 -20
-45 -18 -2 2 1 23 7 47 10 39 13 42 37 38 14 -3 85 -14 156 -26 117 -19 265
-44 321 -56 23 -5 22 -21 41 468 3 92 9 167 12 167 3 0 12 -12 19 -27z m-2293
-263 c3 -5 1 -10 -4 -10 -6 0 -11 5 -11 10 0 6 2 10 4 10 3 0 8 -4 11 -10z
m1364 -117 c21 -77 29 -93 51 -93 30 0 44 38 32 83 -6 21 -6 39 -2 42 10 6
127 -11 161 -24 19 -6 27 -23 41 -87 30 -128 32 -144 19 -144 -14 0 -45 70
-55 123 -13 72 -82 101 -121 52 -43 -55 -58 -65 -98 -65 l-40 0 5 -62 c3 -35
15 -84 27 -109 19 -39 30 -50 79 -71 31 -14 68 -29 82 -33 14 -4 43 -15 65
-25 22 -10 72 -30 110 -44 39 -15 84 -33 100 -41 79 -35 126 -54 195 -79 41
-15 94 -36 118 -47 49 -22 83 -24 100 -7 20 20 14 27 -33 39 -66 17 -105 57
-105 108 0 23 2 41 5 41 3 0 10 -20 16 -45 13 -50 -3 -43 167 -70 150 -23 150
-22 -15 -112 -66 -36 -63 -36 -157 7 -25 11 -48 20 -51 20 -4 0 -21 6 -38 14
-18 8 -86 36 -152 62 -66 26 -138 55 -160 65 -72 32 -219 90 -280 111 -33 12
-63 25 -66 30 -3 5 -12 35 -18 66 -7 31 -16 66 -21 77 -9 20 -40 147 -43 175
-2 15 51 89 63 90 3 0 11 -21 19 -47z m-1336 -20 c7 -38 13 -60 30 -113 8 -25
20 -65 27 -90 12 -43 50 -154 65 -192 4 -11 3 -18 -4 -18 -6 0 -11 5 -11 12 0
6 -20 46 -45 89 -44 77 -58 129 -82 313 -6 44 12 43 20 -1z m973 -88 c132
-252 213 -415 206 -415 -29 0 -112 138 -251 417 -33 66 -44 130 -17 103 8 -8
36 -55 62 -105z m-826 -361 c0 -8 4 -14 8 -14 4 0 13 -14 19 -30 15 -41 -3
-27 -27 20 -22 44 -25 54 -10 45 6 -3 10 -13 10 -21z m1490 -104 c19 -9 53
-23 75 -30 22 -7 45 -16 50 -20 6 -4 24 -12 40 -18 93 -34 250 -102 253 -110
8 -24 -257 -93 -365 -96 l-66 -1 -18 70 c-38 147 -55 225 -50 230 6 7 37 -3
81 -25z m85 -750 c-28 -12 -67 -12 -60 0 3 6 23 10 43 9 30 0 33 -2 17 -9z"/>
<path d="M5388 8929 c-35 -37 -35 -60 -3 -90 37 -35 52 -73 65 -169 6 -46 18
-103 25 -125 8 -22 19 -67 25 -100 13 -66 24 -86 58 -104 19 -10 26 -10 38 0
19 15 15 55 -15 179 -11 47 -29 123 -40 170 -36 158 -80 263 -112 267 -8 1
-26 -12 -41 -28z"/>
<path d="M6767 9125 c-20 -7 -43 -17 -50 -23 -7 -6 -40 -15 -74 -21 -34 -5
-75 -17 -91 -25 -17 -9 -55 -25 -86 -37 -31 -11 -63 -30 -71 -42 -17 -24 -20
-63 -6 -71 5 -4 45 5 88 18 121 37 213 56 308 63 63 4 93 11 111 25 34 27 31
58 -9 85 -53 36 -79 42 -120 28z"/>
<path d="M6125 8856 c-119 -49 -175 -90 -175 -128 1 -13 8 -50 16 -83 36 -138
37 -159 10 -209 -14 -28 -64 -92 -100 -130 -51 -56 -67 -112 -44 -161 15 -34
35 -32 130 16 96 48 114 68 121 130 5 41 42 199 109 466 11 46 18 90 14 98 -6
18 -39 18 -81 1z"/>
<path d="M6750 8833 c-151 -15 -250 -48 -250 -82 0 -25 3 -25 55 -7 38 13 155
9 170 -5 3 -3 -6 -12 -20 -19 -21 -11 -36 -12 -87 -1 l-62 13 -36 -39 c-54
-58 -80 -105 -91 -172 -14 -77 -6 -111 24 -111 30 0 257 113 280 140 10 12 27
46 38 76 16 42 31 62 62 84 64 45 67 49 67 78 0 50 -25 58 -150 45z m-19 -145
c-4 -13 -28 -33 -53 -46 -43 -21 -50 -22 -113 -11 -95 16 -71 35 40 31 80 -3
86 -2 106 23 28 31 31 31 20 3z"/>
<path d="M6244 8372 c-19 -29 -25 -94 -15 -142 5 -25 19 -83 31 -130 86 -339
85 -335 60 -433 -11 -45 -20 -87 -20 -94 0 -20 44 -15 74 8 53 42 70 118 45
199 -6 19 -19 71 -30 115 -10 44 -30 127 -43 185 -14 58 -34 141 -44 185 -16
68 -36 125 -45 125 -1 0 -7 -8 -13 -18z"/>
<path d="M5354 8187 c-45 -67 -96 -162 -114 -211 -22 -55 -15 -76 25 -76 22 0
39 -16 72 -66 12 -18 14 -17 40 16 33 42 119 128 153 153 14 10 42 23 63 29
54 16 90 52 82 81 -4 12 -11 26 -15 30 -10 11 -117 36 -155 37 -16 0 -45 9
-63 20 -45 28 -64 25 -88 -13z"/>
<path d="M6730 8128 c0 -18 5 -49 10 -68 5 -19 18 -69 28 -110 26 -100 40
-132 55 -128 22 8 38 52 34 93 -7 66 -50 195 -74 221 -32 35 -53 31 -53 -8z"/>
<path d="M7224 8093 c-29 -26 -64 -79 -64 -97 0 -21 75 -96 96 -96 13 0 15 6
10 31 -3 17 -6 65 -6 105 0 41 -4 74 -8 74 -5 0 -18 -8 -28 -17z"/>
<path d="M7454 7796 c-7 -17 82 -129 96 -121 4 3 4 22 -1 42 -5 21 -9 40 -9
43 -4 33 -76 63 -86 36z"/>
<path d="M7577 7469 c-4 -50 -16 -128 -27 -172 -30 -128 -33 -454 -4 -464 37
-12 186 360 201 499 l6 56 -60 59 c-33 33 -68 72 -78 86 -9 15 -21 27 -25 27
-4 0 -10 -41 -13 -91z"/>
<path d="M6507 8143 c-11 -11 -7 -64 9 -128 9 -33 27 -112 41 -175 25 -115 25
-115 8 -203 -25 -128 -7 -150 65 -77 57 59 57 81 -1 325 -23 94 -45 179 -49
190 -25 65 -31 75 -48 75 -10 0 -22 -3 -25 -7z"/>
<path d="M6050 8050 c-8 -5 -40 -21 -70 -34 -64 -29 -100 -59 -100 -84 0 -9 5
-35 11 -57 5 -22 20 -83 32 -136 13 -53 31 -108 40 -123 15 -23 24 -26 72 -26
67 0 94 12 123 54 32 46 36 89 17 171 -9 39 -23 102 -32 140 -21 95 -48 122
-93 95z"/>
<path d="M5625 7898 c-31 -12 -38 -16 -88 -63 -62 -56 -92 -127 -69 -162 12
-19 288 -51 304 -35 15 15 -22 210 -47 248 -17 26 -49 30 -100 12z"/>
<path d="M7727 7822 c-21 -23 -21 -36 -1 -98 34 -100 56 -93 55 16 -1 92 -19
120 -54 82z"/>
<path d="M5122 7528 c-14 -14 -16 -58 -3 -58 16 0 41 31 41 51 0 21 -20 25
-38 7z"/>
<path d="M6267 7322 c-10 -10 -17 -25 -17 -33 0 -18 20 -39 36 -39 17 0 44 28
44 45 0 15 -26 45 -39 45 -4 0 -15 -8 -24 -18z"/>
<path d="M5144 7144 c-20 -48 -29 -129 -16 -138 6 -3 15 8 20 26 13 42 25 148
17 148 -3 0 -13 -16 -21 -36z"/>
<path d="M6317 6166 c-9 -22 2 -73 25 -120 l20 -39 70 6 c78 7 158 33 158 52
0 14 -52 48 -91 60 -13 4 -44 16 -68 27 -64 29 -107 34 -114 14z"/>
<path d="M5635 5560 c3 -5 11 -10 16 -10 6 0 7 5 4 10 -3 6 -11 10 -16 10 -6
0 -7 -4 -4 -10z"/>
<path d="M2200 5324 c-79 -14 -142 -40 -245 -100 -36 -21 -165 -162 -165 -181
0 -28 -23 -83 -35 -83 -23 0 -29 -66 -15 -174 12 -94 17 -109 73 -213 53 -97
75 -127 162 -212 55 -54 123 -111 150 -126 28 -15 84 -47 125 -70 52 -30 120
-56 220 -84 136 -38 154 -41 274 -41 86 0 147 5 184 16 145 40 188 59 266 115
86 64 119 103 112 133 -3 11 6 38 19 61 20 33 26 61 31 141 6 94 5 106 -25
200 -85 268 -333 487 -666 587 -104 32 -138 37 -250 42 -93 3 -154 0 -215 -11z
m180 -117 c13 -5 13 -6 -1 -6 -8 -1 -24 6 -35 15 -19 15 -19 15 1 6 11 -5 27
-12 35 -15z m-70 -7 c-6 -12 -21 -20 -35 -20 -24 0 -33 -5 -89 -56 -15 -13
-31 -24 -35 -24 -5 0 -32 -16 -61 -36 -28 -19 -53 -34 -54 -32 -1 2 -8 12 -16
22 -14 18 -14 18 5 6 18 -10 26 -9 60 14 63 41 104 69 135 94 15 12 38 22 49
22 12 0 24 7 27 15 4 8 10 15 15 15 6 0 5 -9 -1 -20z m117 4 c-3 -3 -12 -4
-19 -1 -8 3 -5 6 6 6 11 1 17 -2 13 -5z m78 -57 c15 -4 13 -5 -7 -6 -22 -1
-31 6 -44 32 l-16 32 24 -27 c13 -15 32 -29 43 -31z m-150 25 c-11 -2 -25 -8
-30 -12 -20 -16 -65 -30 -65 -20 0 6 9 10 19 10 10 0 29 8 42 19 13 10 30 16
39 13 12 -5 11 -7 -5 -10z m75 -11 c0 -5 3 -16 6 -25 5 -12 0 -16 -22 -15 -17
1 -22 3 -11 6 9 2 17 8 17 13 0 5 -8 14 -17 19 -16 9 -16 10 5 11 12 0 22 -4
22 -9z m165 -31 c13 -5 14 -9 5 -9 -8 0 -24 4 -35 9 -13 5 -14 9 -5 9 8 0 24
-4 35 -9z m-357 -14 c-10 -7 -18 -18 -18 -24 0 -21 20 -22 57 -4 21 11 54 22
73 26 23 4 13 -2 -27 -18 -35 -13 -70 -29 -78 -36 -17 -14 -17 -15 -33 22 -9
23 -9 29 6 37 25 15 40 13 20 -3z m286 -5 c4 -5 2 -11 -4 -13 -5 -1 4 -29 20
-62 16 -32 24 -53 16 -47 -7 6 -21 30 -31 53 -10 24 -25 51 -33 61 -14 15 -13
17 6 17 11 0 23 -4 26 -9z m71 -11 c25 -11 -1 -11 -35 0 -20 6 -21 8 -5 8 11
0 29 -3 40 -8z m115 -6 c23 -9 39 -18 37 -20 -2 -3 -24 4 -48 15 -54 24 -45
27 11 5z m-234 -11 c17 -23 18 -43 1 -43 -8 0 -13 10 -13 22 1 15 -7 24 -24
29 l-25 7 24 1 c13 1 30 -7 37 -16z m-108 -9 c-26 -8 -49 -18 -52 -23 -8 -13
13 -77 33 -102 l18 -22 47 33 c36 26 45 38 40 54 -4 17 -3 18 5 6 6 -8 11 -19
10 -25 0 -16 -88 -77 -107 -73 -16 3 -50 63 -66 115 -6 18 -1 23 36 36 24 9
52 15 63 16 11 0 -1 -7 -27 -15z m303 1 c19 -8 29 -14 23 -15 -7 0 -27 7 -45
15 -19 8 -29 14 -23 15 7 0 27 -7 45 -15z m-791 -5 c13 -8 13 -10 -2 -10 -9 0
-20 5 -23 10 -8 13 5 13 25 0z m348 -98 c23 -59 45 -111 47 -117 4 -10 -67
-65 -83 -65 -5 0 -19 11 -31 24 -21 22 -22 27 -10 66 l13 43 -47 41 c-26 23
-47 44 -47 48 0 7 99 68 110 68 3 -1 24 -49 48 -108z m-378 73 c0 -8 -2 -15
-4 -15 -2 0 -6 7 -10 15 -3 8 -1 15 4 15 6 0 10 -7 10 -15z m885 5 c3 -6 -1
-7 -9 -4 -18 7 -21 14 -7 14 6 0 13 -4 16 -10z m-635 -155 c5 3 10 10 10 15 0
11 -63 70 -111 106 -21 15 -27 24 -17 24 9 0 18 -3 20 -7 2 -5 31 -32 65 -61
59 -50 61 -53 50 -81 l-11 -30 -60 52 c-33 29 -80 72 -105 95 -25 24 -2 7 51
-38 54 -45 102 -79 108 -75z m293 148 c-7 -2 -19 -2 -25 0 -7 3 -2 5 12 5 14
0 19 -2 13 -5z m412 -28 c39 -24 39 -25 12 -25 -16 0 -26 4 -22 10 3 5 -7 16
-22 24 -15 8 -23 15 -18 15 6 0 28 -11 50 -24z m108 -38 c23 -20 17 -18 -23 9
-67 46 -87 64 -42 38 19 -10 48 -32 65 -47z m-872 -135 c-38 -3 -47 2 -106 54
-36 32 -65 62 -65 68 1 6 8 2 18 -9 60 -70 152 -128 152 -96 0 5 -37 42 -82
82 -46 40 -85 76 -87 82 -2 5 45 -33 104 -84 l107 -94 -41 -3z m252 127 c20
-46 22 -58 10 -47 -15 11 -16 11 -10 -5 4 -10 7 -22 7 -26 0 -4 38 -40 85 -80
55 -48 89 -85 97 -107 14 -40 41 -42 46 -4 2 21 -12 38 -80 97 -46 40 -93 82
-103 94 -11 13 28 -19 87 -70 110 -95 129 -121 108 -146 -17 -20 -71 -20 -64
-1 6 16 -11 54 -35 76 -9 8 -46 41 -83 73 -56 49 -71 69 -92 124 -24 62 -26
83 -7 83 4 0 20 -27 34 -61z m227 31 c16 -22 18 -30 7 -30 -13 0 -36 21 -51
48 -15 26 24 11 44 -18z m-127 13 c-7 -2 -21 -2 -30 0 -10 3 -4 5 12 5 17 0
24 -2 18 -5z m-515 -104 c33 -27 51 -48 48 -58 -25 -85 -10 -196 40 -296 39
-80 131 -188 211 -246 62 -46 165 -100 243 -128 30 -11 48 -20 40 -20 -29 -1
-176 65 -248 112 -135 87 -250 229 -290 357 -11 37 -16 85 -15 148 l1 92 -54
46 c-30 26 -54 54 -54 63 1 12 4 11 13 -6 7 -12 36 -40 65 -64z m853 63 c-23
-11 -38 -28 -44 -47 -5 -16 -10 -36 -12 -42 -3 -10 -10 -10 -30 -1 -20 9 -23
14 -13 26 10 12 13 11 19 -5 5 -15 9 -12 22 18 16 38 50 69 77 69 8 0 0 -8
-19 -18z m-91 -40 c3 -2 -6 -1 -20 3 -14 4 -32 14 -40 22 -12 12 -7 11 20 -2
19 -10 37 -20 40 -23z m244 24 c36 -15 55 -51 38 -68 -11 -11 -32 -3 -32 13 0
6 4 8 9 4 18 -11 20 13 3 28 -26 24 -100 28 -86 5 4 -7 3 -8 -5 -4 -33 21 -67
-24 -39 -52 9 -9 9 -12 0 -12 -6 0 -15 15 -20 33 l-9 32 -12 -29 c-9 -23 -9
-32 1 -42 15 -15 74 -31 65 -18 -3 5 19 7 50 5 47 -2 65 -10 115 -47 75 -55
66 -58 -11 -4 -31 22 -62 40 -69 40 -16 0 -15 -17 1 -23 6 -2 -10 -2 -38 1
-27 3 -70 13 -94 24 -41 17 -43 20 -37 50 9 46 32 66 80 71 22 2 45 4 49 5 4
1 23 -4 41 -12z m-425 -38 c-12 -10 -31 -18 -42 -18 -18 0 -17 4 13 29 24 20
37 25 42 17 5 -6 -1 -19 -13 -28z m132 -1 c-12 -12 -82 12 -88 30 -3 8 12 6
46 -5 33 -10 48 -19 42 -25z m500 -126 c27 -40 49 -79 49 -85 0 -6 -17 18 -37
53 -21 35 -65 93 -97 130 -55 60 -56 62 -12 21 27 -25 70 -78 97 -119z m-266
119 c3 -5 1 -10 -6 -10 -10 0 -10 -3 -2 -11 9 -9 18 -8 37 5 15 9 26 13 26 8
0 -15 -24 -32 -46 -32 -25 0 -57 27 -49 41 8 12 32 12 40 -1z m-262 -19 c14
-5 43 -27 65 -48 31 -30 40 -44 35 -61 -3 -14 -10 -19 -18 -14 -21 12 -85 71
-85 78 0 3 16 -8 35 -25 38 -33 55 -39 55 -18 0 15 -62 68 -93 80 -24 9 -37
-1 -17 -13 8 -5 12 -11 9 -14 -3 -3 -19 8 -35 25 l-29 32 27 -7 c15 -3 38 -10
51 -15z m-63 -31 c3 -3 38 -34 78 -69 87 -76 93 -107 25 -124 -19 -4 -23 -1
-23 18 0 39 -8 50 -92 121 -79 68 -80 69 -52 75 25 5 45 -2 64 -21z m493 8
c40 -41 70 -88 55 -88 -15 0 -51 23 -85 53 -18 16 -20 23 -10 38 15 24 13 24
40 -3z m-1019 -61 c-20 -11 -19 -106 0 -113 12 -5 13 -11 3 -31 -10 -22 -12
-23 -18 -6 -9 22 -11 167 -3 176 3 3 12 0 19 -6 11 -10 10 -13 -1 -20z m762
17 c13 -3 24 -10 24 -15 0 -6 -8 -5 -19 1 -27 14 -41 13 -35 -4 9 -25 -17
-130 -38 -153 -18 -19 -19 -26 -8 -58 14 -42 6 -56 -49 -85 l-36 -19 50 -2 50
-1 -55 -9 c-93 -14 -112 9 -30 36 63 21 76 42 55 91 -18 45 -18 44 1 44 28 0
69 150 44 165 -16 10 -12 28 6 21 9 -3 27 -9 40 -12z m-360 -50 c84 -74 86
-115 8 -126 -28 -4 -41 4 -99 57 l-68 61 44 32 c23 18 45 32 47 32 2 0 33 -25
68 -56z m-240 23 l27 -23 -31 -13 c-41 -17 -65 -55 -60 -96 l4 -33 -28 19
c-35 25 -48 45 -19 30 18 -10 22 -8 35 22 7 19 26 44 42 56 27 22 28 23 10 36
-12 9 -37 12 -70 10 -43 -3 -46 -3 -16 4 59 14 78 12 106 -12z m810 -12 c19
-14 39 -36 45 -48 8 -17 5 -15 -13 6 -12 15 -36 36 -53 47 -16 11 -26 20 -21
20 5 0 24 -11 42 -25z m-63 1 c36 -14 97 -79 97 -101 0 -8 34 -60 76 -115 l77
-102 -12 -38 c-6 -22 -16 -42 -20 -45 -5 -3 -38 -7 -73 -10 -69 -5 -61 0 15
10 44 6 50 10 63 42 17 40 16 41 -63 146 -24 31 -59 83 -76 114 -38 67 -67 90
-127 102 -32 6 -37 9 -17 10 15 1 42 -5 60 -13z m188 -36 c15 0 46 -77 59
-146 20 -102 12 -106 -51 -23 -31 41 -61 84 -67 96 -19 34 -13 41 6 8 48 -87
123 -161 108 -107 -2 9 -8 33 -11 52 -11 52 -40 105 -67 118 -13 7 -15 10 -5
7 10 -3 23 -5 28 -5z m-817 -55 l59 -53 -66 -7 c-36 -4 -71 -5 -79 -2 -7 3 5
6 27 6 22 1 50 4 63 7 23 7 23 7 -14 45 -40 41 -76 50 -106 27 -25 -20 -31
-54 -13 -71 19 -19 19 -27 1 -27 -15 0 -26 21 -26 52 0 25 53 78 77 78 10 -1
45 -25 77 -55z m922 -150 l3 -80 -9 75 c-5 41 -13 88 -19 103 -17 43 -11 57 6
17 8 -19 17 -71 19 -115z m-1147 92 c12 -15 5 -27 -16 -27 -7 0 -13 9 -13 20
0 23 13 26 29 7z m582 -24 c5 -14 9 -33 7 -41 -3 -13 -176 -87 -185 -78 -2 2
29 16 69 31 40 15 82 36 92 46 18 17 19 19 3 37 -18 19 -17 19 -374 -14 -85
-7 -85 -8 -48 -103 42 -108 98 -181 185 -244 l25 -18 -25 12 c-80 38 -149 128
-199 259 -17 44 -31 83 -31 88 0 7 272 37 453 51 10 0 22 -10 28 -26z m191
-20 c-7 -42 -21 -53 -61 -52 l-36 2 34 6 c33 6 43 16 55 54 8 27 14 20 8 -10z
m48 -3 c12 -16 19 -30 16 -30 -2 0 -14 14 -26 30 -12 17 -19 30 -16 30 2 0 14
-13 26 -30z m-795 -59 c0 -33 -3 -57 -7 -55 -15 9 -59 95 -53 104 3 6 18 10
33 10 26 0 27 -2 27 -59z m60 -8 c24 -65 73 -164 93 -186 32 -37 4 -24 -47 21
-46 41 -54 54 -66 107 -12 49 -12 105 0 105 1 0 10 -21 20 -47z m745 1 c24
-55 25 -64 6 -64 -8 0 -12 8 -9 23 5 26 -21 56 -32 37 -3 -5 -14 -10 -23 -10
-13 0 -12 3 6 16 12 8 22 22 22 30 0 25 8 15 30 -32z m63 -33 c28 -48 12 -37
-24 17 -18 26 -24 39 -13 30 10 -9 27 -30 37 -47z m-172 11 c-18 -2 -37 0 -42
5 -5 5 11 6 34 3 41 -4 41 -5 8 -8z m-245 -67 c-6 -31 -3 -36 53 -81 32 -27
58 -57 58 -66 -1 -22 -11 -16 -91 55 -58 51 -64 60 -56 81 5 13 6 27 2 31 -9
8 20 25 31 18 5 -3 6 -20 3 -38z m226 7 c-8 -2 -24 5 -35 17 l-21 20 36 -17
c21 -10 29 -18 20 -20z m-292 9 c0 -20 -25 -51 -41 -51 -5 0 0 9 11 20 11 11
20 27 20 35 0 8 2 15 5 15 3 0 5 -9 5 -19z m388 2 c-10 -2 -28 -2 -40 0 -13 2
-5 4 17 4 22 1 32 -1 23 -4z m327 -59 c-38 -100 -129 -184 -252 -231 -58 -22
-86 -26 -198 -28 l-130 -3 125 8 c169 10 259 42 347 123 55 50 87 98 104 157
7 24 15 37 17 31 2 -7 -4 -33 -13 -57z m-463 31 c35 -30 27 -34 -9 -5 -31 24
-63 26 -63 4 0 -14 -2 -14 -15 0 -22 22 -19 26 21 26 24 0 46 -8 66 -25z m253
15 c-3 -5 -12 -10 -18 -10 -7 0 -6 4 3 10 19 12 23 12 15 0z m-370 -40 c-5 -8
40 -52 70 -68 11 -6 14 -12 7 -12 -23 0 -112 82 -112 103 0 19 1 19 20 2 11
-10 18 -21 15 -25z m318 23 c-13 -2 -33 -2 -45 0 -13 2 -3 4 22 4 25 0 35 -2
23 -4z m-98 -10 c-16 -3 -36 -9 -42 -15 -10 -8 -13 -6 -13 6 0 12 9 16 43 15
34 -2 36 -3 12 -6z m-361 -54 c20 -12 36 -23 36 -25 0 -5 -44 18 -70 35 -27
19 -2 11 34 -10z m630 -34 c-15 -23 -22 -25 -98 -25 -44 0 -86 4 -93 8 -6 4
29 5 78 4 60 -3 89 0 89 7 0 6 -15 12 -32 12 l-33 1 30 8 c17 4 40 8 53 9 22
1 22 0 6 -24z m-508 -42 c-4 -4 -76 37 -76 44 0 2 18 -6 40 -18 22 -12 38 -24
36 -26z m247 30 c-24 -2 -62 -2 -85 0 -24 2 -5 4 42 4 47 0 66 -2 43 -4z m-30
-70 c31 -27 56 -51 56 -54 2 -12 -67 -20 -162 -20 -96 0 -212 21 -256 47 -15
9 -18 12 -6 8 79 -27 181 -44 270 -44 130 0 143 8 90 55 -22 19 -56 37 -75 40
-63 11 -66 13 -19 14 41 1 52 -4 102 -46z m145 28 c7 -4 -12 -6 -43 -3 -61 5
-67 -3 -30 -38 l25 -24 47 23 c36 17 43 25 32 32 -10 6 -5 9 19 9 20 0 31 -4
27 -10 -8 -14 -100 -60 -118 -60 -8 0 -34 18 -58 40 l-44 39 65 0 c36 1 71 -3
78 -8z m-378 -121 c20 -6 21 -8 5 -8 -11 0 -31 4 -45 8 -20 6 -21 8 -5 8 11 0
31 -4 45 -8z"/>
<path d="M2123 5039 c-18 -12 -33 -24 -33 -27 0 -3 17 -23 38 -45 34 -35 37
-43 37 -95 0 -54 2 -57 25 -60 17 -2 33 5 48 21 l22 23 -39 100 c-22 54 -45
100 -53 101 -7 2 -28 -6 -45 -18z"/>
<path d="M2450 4861 c0 -5 28 -33 62 -62 33 -30 67 -69 75 -87 16 -38 37 -38
41 -1 2 21 -12 37 -76 92 -75 63 -102 79 -102 58z"/>
<path d="M2965 4860 c-3 -6 4 -19 17 -30 42 -35 54 -19 14 19 -16 15 -26 19
-31 11z"/>
<path d="M2265 4786 l-30 -25 50 -45 c53 -48 78 -60 116 -54 30 4 36 37 12 64
-33 36 -94 84 -106 84 -7 0 -25 -11 -42 -24z"/>
<path d="M2014 4554 c3 -9 6 -18 6 -20 0 -3 5 -2 10 1 16 10 12 35 -6 35 -11
0 -14 -5 -10 -16z"/>
<path d="M2105 4468 c14 -50 28 -77 42 -82 8 -3 13 -2 11 2 -1 4 -12 29 -23
55 -20 48 -41 65 -30 25z"/>
<path d="M7915 4190 c-227 -35 -524 -266 -619 -481 -34 -80 -40 -133 -20 -189
22 -62 53 -80 135 -80 71 0 212 39 250 68 13 11 39 27 58 37 23 11 30 19 22
25 -9 5 -8 9 4 13 9 4 13 3 10 -2 -3 -5 -1 -12 5 -16 5 -3 11 -1 11 4 1 6 2
15 3 20 0 5 5 13 10 18 5 5 6 2 1 -6 -5 -9 -3 -12 6 -9 8 3 13 10 12 16 -2 6
3 9 10 6 7 -2 22 4 32 16 10 11 23 20 28 20 6 0 41 32 79 70 127 130 202 277
189 370 -4 26 -12 44 -18 43 -7 -2 -20 8 -30 20 -15 20 -94 50 -120 46 -4 -1
-30 -5 -58 -9z m50 -79 c-3 -6 2 -14 10 -19 15 -8 15 -10 0 -22 -13 -11 -15
-10 -9 4 5 12 0 19 -17 23 -22 6 -22 7 -3 14 26 10 26 10 19 0z m55 -10 c0 -6
-5 -13 -12 -17 -6 -4 -8 -3 -4 4 3 5 0 13 -6 15 -8 3 -6 6 5 6 9 1 17 -3 17
-8z m-151 -41 c-6 -5 -18 -6 -26 -3 -19 8 -16 11 13 11 17 0 22 -3 13 -8z
m-146 -15 c-3 -9 -8 -14 -10 -11 -3 3 -2 9 2 15 9 16 15 13 8 -4z m210 8 c-7
-2 -19 -2 -25 0 -7 3 -2 5 12 5 14 0 19 -2 13 -5z m127 -46 c0 -12 0 -11 -24
28 l-17 30 20 -24 c12 -13 21 -28 21 -34z m-239 20 c-10 -9 -11 -8 -5 6 3 10
9 15 12 12 3 -3 0 -11 -7 -18z m96 7 c-3 -3 -12 -4 -19 -1 -8 3 -5 6 6 6 11 1
17 -2 13 -5z m-17 -21 c0 -2 -8 -3 -18 -1 -11 2 -26 -3 -35 -11 -10 -7 -17
-10 -17 -6 0 4 -7 2 -15 -5 -16 -13 -20 -31 -7 -28 4 0 18 -3 31 -9 l25 -10
-25 -6 c-16 -5 -28 -1 -36 10 -7 9 -13 12 -13 7 0 -6 -6 -11 -14 -11 -7 0 -13
7 -11 16 1 9 7 16 13 16 6 0 20 10 32 23 12 12 25 20 30 17 5 -3 11 -1 14 4 6
9 46 4 46 -6z m59 0 c-6 -7 -15 -10 -20 -7 -13 8 -3 21 15 21 12 0 13 -4 5
-14z m-316 -8 c-3 -9 -8 -14 -10 -11 -3 3 -2 9 2 15 9 16 15 13 8 -4z m395
-36 c-3 -20 -5 -19 -9 9 -3 20 -2 29 4 23 5 -5 7 -19 5 -32z m-106 17 c7 4 8
2 4 -5 -4 -6 -12 -9 -17 -5 -6 3 -8 -4 -6 -18 2 -12 2 -17 0 -10 -3 6 -9 12
-14 12 -11 0 -7 23 6 32 6 4 12 3 13 -2 2 -6 9 -7 14 -4z m135 -43 c-3 -10 -5
-2 -5 17 0 19 2 27 5 18 2 -10 2 -26 0 -35z m-402 -2 c-8 -14 -35 -14 -35 -1
0 5 7 7 15 4 8 -4 15 -1 15 7 0 7 3 10 6 6 3 -3 3 -10 -1 -16z m28 5 c3 -8 -2
-20 -11 -27 -14 -11 -15 -11 -5 0 6 7 9 20 6 27 -3 8 -3 14 0 14 3 0 7 -6 10
-14z m197 -6 c0 -5 -4 -10 -10 -10 -5 0 -10 5 -10 10 0 6 5 10 10 10 6 0 10
-4 10 -10z m-276 -12 c-3 -4 4 -8 16 -8 23 0 25 -31 2 -36 -7 -1 -8 0 -2 3 5
2 10 8 10 13 0 8 -39 23 -53 21 -5 -1 -6 2 -3 7 3 5 12 9 20 9 8 0 13 -4 10
-9z m371 -6 c-11 -2 -24 -8 -30 -14 -6 -6 -3 -7 10 -2 17 7 18 6 7 -8 -10 -13
-9 -15 12 -13 14 2 29 6 35 9 11 7 6 -33 -5 -43 -4 -3 -4 2 -1 11 5 15 1 17
-26 14 -29 -4 -35 -1 -44 24 -13 36 -11 38 29 31 24 -3 27 -6 13 -9z m-126
-25 c-1 -20 -2 -20 -9 3 -4 14 -8 19 -9 11 -1 -8 -4 -12 -7 -8 -9 9 6 28 17
22 5 -4 9 -16 8 -28z m181 23 c0 -5 -2 -10 -4 -10 -3 0 -8 5 -11 10 -3 6 -1
10 4 10 6 0 11 -4 11 -10z m-220 -10 c0 -5 -7 -7 -15 -4 -8 4 -15 8 -15 10 0
2 7 4 15 4 8 0 15 -4 15 -10z m93 -21 c-2 -18 1 -27 9 -26 29 1 48 -4 48 -12
0 -9 -43 -7 -60 4 -7 4 -10 16 -7 26 3 12 0 19 -10 19 -8 0 -12 4 -9 8 3 5 12
9 19 9 10 0 13 -9 10 -28z m-192 3 c-7 -2 -18 1 -23 6 -8 8 -4 9 13 5 13 -4
18 -8 10 -11z m-36 -2 c3 -6 -1 -7 -9 -4 -18 7 -21 14 -7 14 6 0 13 -4 16 -10z
m-141 -25 c-6 -14 6 -20 29 -16 5 1 6 -3 2 -9 -3 -6 -12 -7 -18 -3 -7 4 -6 0
2 -10 12 -15 11 -17 -3 -17 -9 0 -15 3 -15 8 3 18 -2 32 -12 32 -5 0 -8 -4 -4
-9 3 -5 1 -12 -4 -15 -13 -9 -7 19 8 38 17 20 22 20 15 1z m71 5 c3 -5 1 -10
-4 -10 -6 0 -11 5 -11 10 0 6 2 10 4 10 3 0 8 -4 11 -10z m48 -5 c-3 -9 -8
-14 -10 -11 -3 3 -2 9 2 15 9 16 15 13 8 -4z m180 2 c8 5 8 2 0 -9 -7 -8 -11
-17 -8 -20 3 -3 0 -10 -8 -16 -10 -8 -13 -6 -14 9 -1 10 2 19 7 19 5 0 8 6 6
13 -1 6 -1 9 1 4 3 -4 10 -4 16 0z m41 -18 c-2 -4 5 -10 16 -14 20 -6 28 -39
11 -49 -5 -4 -7 3 -4 13 3 13 -2 23 -16 31 -12 6 -19 15 -16 21 4 5 1 9 -5 9
-6 0 -8 5 -4 11 4 8 9 7 15 -2 4 -7 6 -16 3 -20z m111 -14 c-2 -33 -15 -45
-15 -13 0 20 7 38 14 38 1 0 1 -11 1 -25z m-272 2 c7 3 4 -3 -6 -14 -9 -11
-14 -23 -10 -26 8 -8 -10 -9 -30 -1 -12 4 -11 9 7 27 11 12 23 19 24 14 2 -4
9 -4 15 0z m-99 -21 c-3 -9 -10 -16 -15 -16 -5 0 -4 9 3 20 14 22 21 20 12 -4z
m-138 5 c-3 -5 0 -14 8 -20 14 -11 17 -36 5 -36 -3 0 -14 -7 -25 -15 -18 -14
-18 -14 -1 6 16 19 16 22 2 34 -12 10 -13 16 -4 26 13 16 23 19 15 5z m270
-15 c2 -12 -4 -13 -35 -7 -2 1 2 8 9 16 14 16 23 13 26 -9z m204 10 c0 -8 3
-23 6 -33 3 -10 -2 -7 -10 7 -18 30 -20 40 -6 40 6 0 10 -6 10 -14z m-166 -17
c-3 -5 -10 -7 -15 -3 -5 3 -7 10 -3 15 3 5 10 7 15 3 5 -3 7 -10 3 -15z m-237
-5 c-3 -3 -12 -4 -19 -1 -8 3 -5 6 6 6 11 1 17 -2 13 -5z m56 -11 c-7 -2 -19
-2 -25 0 -7 3 -2 5 12 5 14 0 19 -2 13 -5z m-143 -9 c0 -8 -19 -13 -24 -6 -3
5 1 9 9 9 8 0 15 -2 15 -3z m220 -3 c0 -6 9 -8 20 -6 11 2 18 0 15 -5 -6 -9
-19 -8 -55 8 -24 10 -24 11 -2 11 12 1 22 -3 22 -8z m225 -10 c-9 -8 -36 -10
-30 -2 2 4 11 8 20 8 8 0 13 -3 10 -6z m60 -11 c-10 -11 -20 -18 -23 -15 -3 3
-12 -1 -21 -7 -10 -8 -9 -4 3 9 10 13 22 20 27 18 4 -3 10 -1 14 5 3 5 9 10
12 10 3 0 -2 -9 -12 -20z m-322 -27 c-7 -2 -19 -2 -25 0 -7 3 -2 5 12 5 14 0
19 -2 13 -5z m102 -3 c-3 -5 0 -10 7 -10 10 0 10 -2 0 -9 -8 -4 -13 -12 -13
-16 1 -5 -5 -10 -14 -11 -19 -3 -20 12 0 20 8 3 15 9 14 13 -2 13 1 23 7 23 3
0 2 -4 -1 -10z m-285 -6 c0 -8 -19 -13 -24 -6 -3 5 1 9 9 9 8 0 15 -2 15 -3z
m241 -12 c-13 -2 -27 0 -32 5 -6 6 3 7 23 4 28 -4 29 -6 9 -9z m-286 0 c-3 -3
1 -12 8 -20 8 -11 9 -14 0 -9 -7 4 -16 0 -21 -9 -7 -13 -9 -10 -8 13 0 16 7
30 14 30 6 0 10 -3 7 -5z m120 -12 c-3 -5 -2 -10 2 -10 5 0 14 5 21 10 8 7 9
7 3 -1 -5 -6 -7 -18 -4 -25 3 -7 -2 -21 -11 -29 -18 -19 -21 -12 -6 16 6 11 7
19 1 19 -5 0 -16 -19 -24 -43 -13 -39 -13 -45 2 -56 14 -10 13 -10 -4 -3 -11
5 -26 7 -32 5 -9 -3 -13 8 -12 39 l2 43 7 -40 c4 -22 8 -34 9 -27 0 7 8 29 18
50 15 34 18 42 22 57 0 3 4 5 7 5 3 0 2 -4 -1 -10z m85 0 c13 -8 13 -10 -2
-10 -9 0 -20 5 -23 10 -8 13 5 13 25 0z m234 -31 c-21 -24 -29 -18 -14 10 6
12 16 19 21 15 6 -4 4 -13 -7 -25z m-244 3 c0 -4 -9 -8 -19 -8 -11 0 -17 4
-15 8 3 4 12 8 20 8 8 0 14 -4 14 -8z m25 -2 c3 -5 1 -10 -4 -10 -6 0 -11 5
-11 10 0 6 2 10 4 10 3 0 8 -4 11 -10z m70 -10 c-3 -5 -16 -10 -28 -9 -20 1
-20 2 3 9 14 4 26 8 28 9 2 1 0 -3 -3 -9z m-91 -22 c-3 -4 -9 -8 -15 -8 -5 0
-9 4 -9 8 0 5 7 9 15 9 8 0 12 -4 9 -9z m49 -5 c-7 -2 -19 -2 -25 0 -7 3 -2 5
12 5 14 0 19 -2 13 -5z m-296 -40 c-3 -10 -5 -4 -5 12 0 17 2 24 5 18 2 -7 2
-21 0 -30z m64 -48 c17 -14 26 -25 21 -25 -5 0 -21 12 -36 26 -18 19 -26 36
-24 58 l1 31 4 -32 c3 -20 15 -42 34 -58z m159 29 c0 -2 -16 4 -35 13 -19 9
-35 20 -35 25 0 4 16 -2 35 -13 19 -12 35 -23 35 -25z m117 10 c-3 -3 -12 -4
-19 -1 -8 3 -5 6 6 6 11 1 17 -2 13 -5z m-27 -24 c0 -14 -41 -23 -52 -12 -8 8
-4 9 13 5 21 -6 22 -4 11 9 -11 14 -10 16 7 11 12 -3 21 -9 21 -13z m-259 -46
c13 -7 18 -13 11 -14 -17 0 -62 45 -62 62 1 7 7 2 14 -11 7 -13 24 -30 37 -37z
m120 33 c-10 -9 -11 -8 -5 6 3 10 9 15 12 12 3 -3 0 -11 -7 -18z m63 -18 c-3
-5 -10 -9 -16 -9 -6 0 -8 3 -5 7 4 3 -1 12 -11 20 -15 12 -13 12 10 2 15 -7
25 -16 22 -20z m-94 -9 c0 -5 -10 -10 -22 -9 -22 0 -22 1 -3 9 11 5 21 9 23 9
1 1 2 -3 2 -9z m43 -7 c-7 -2 -19 -2 -25 0 -7 3 -2 5 12 5 14 0 19 -2 13 -5z
m-70 -20 c-7 -2 -19 -2 -25 0 -7 3 -2 5 12 5 14 0 19 -2 13 -5z m70 0 c-7 -2
-19 -2 -25 0 -7 3 -2 5 12 5 14 0 19 -2 13 -5z"/>
<path d="M7810 3950 c0 -5 5 -10 11 -10 5 0 7 5 4 10 -3 6 -8 10 -11 10 -2 0
-4 -4 -4 -10z"/>
<path d="M7689 3813 c-13 -16 -12 -17 4 -4 9 7 17 15 17 17 0 8 -8 3 -21 -13z"/>
<path d="M7470 3806 c0 -2 8 -10 18 -17 15 -13 16 -12 3 4 -13 16 -21 21 -21
13z"/>
<path d="M8268 3658 c-75 -9 -147 -42 -177 -80 l-24 -30 179 7 c120 5 189 12
208 21 16 8 35 14 43 14 26 0 12 20 -29 42 -52 26 -123 36 -200 26z"/>
<path d="M8923 3583 c9 -2 23 -2 30 0 6 3 -1 5 -18 5 -16 0 -22 -2 -12 -5z"/>
<path d="M8838 3573 c7 -3 16 -2 19 1 4 3 -2 6 -13 5 -11 0 -14 -3 -6 -6z"/>
<path d="M9281 3553 c-7 -13 -29 -18 -99 -22 -101 -7 -123 -16 -63 -26 69 -11
53 -20 -28 -17 -96 5 -130 -10 -248 -109 -63 -53 -87 -81 -109 -126 -15 -32
-38 -73 -51 -91 -13 -17 -31 -49 -40 -69 l-15 -38 -34 40 c-19 22 -55 70 -79
107 -74 111 -183 156 -348 144 -50 -4 -108 -7 -127 -6 -56 0 -366 -62 -401
-81 -9 -5 -32 -9 -50 -11 -19 -1 -47 -11 -64 -22 -47 -31 -332 -261 -315 -253
112 48 206 82 291 102 57 14 122 30 144 36 44 11 73 17 93 18 7 1 10 6 7 11
-5 9 16 15 38 11 5 -1 6 3 3 8 -4 5 2 11 11 13 18 4 45 -7 74 -30 9 -7 38 -15
65 -18 42 -5 54 -2 83 20 19 14 41 26 49 26 10 0 12 7 8 24 -7 27 13 36 74 35
l35 -1 -40 -13 -40 -13 53 -1 c28 -1 52 3 52 9 0 5 12 13 26 16 23 6 33 -1 75
-47 29 -32 49 -64 49 -77 0 -30 -80 -115 -133 -141 -23 -11 -54 -31 -69 -43
l-28 -23 28 -65 c24 -57 27 -78 27 -175 0 -102 -2 -114 -29 -165 -15 -30 -35
-63 -44 -72 -23 -27 -3 -22 99 26 129 59 261 135 344 196 64 47 70 50 82 34 7
-10 13 -30 13 -44 0 -14 7 -35 15 -46 20 -26 19 -68 -2 -87 -10 -8 -40 -24
-68 -35 -27 -11 -88 -36 -135 -57 -143 -61 -507 -191 -645 -230 -66 -19 -155
-59 -155 -70 0 -1 47 10 105 25 120 33 450 148 733 256 106 41 200 74 209 74
9 0 43 -21 76 -46 53 -42 62 -46 97 -40 21 3 46 9 56 13 12 4 15 3 10 -5 -6
-9 -1 -9 18 -1 l25 12 -27 36 c-15 19 -35 43 -44 53 -25 25 -22 45 7 64 34 22
57 14 80 -27 11 -20 29 -47 39 -61 l20 -24 180 73 c100 41 190 80 201 87 23
15 124 41 131 33 3 -3 2 -22 -2 -42 -7 -38 -29 -68 -55 -77 -10 -3 -16 -31
-20 -94 -3 -49 -4 -90 -3 -92 3 -5 44 84 44 96 0 6 7 30 16 52 13 33 19 38 30
29 20 -17 17 -36 -19 -120 -54 -124 -108 -214 -118 -198 -7 11 -9 11 -9 1 0
-13 -13 -11 -59 6 -10 4 -12 1 -6 -8 6 -10 4 -11 -11 -5 -10 5 -29 9 -41 9
-13 1 -23 5 -23 10 0 4 -12 1 -26 -9 -15 -9 -23 -12 -20 -6 8 12 8 12 -52 14
-24 1 -46 -2 -50 -7 -3 -5 1 -6 8 -1 9 5 11 4 6 -3 -5 -9 -13 -9 -27 -2 -11 6
-25 8 -31 4 -7 -4 -8 -3 -4 4 6 11 0 14 -21 11 -5 -1 -7 -5 -5 -11 1 -5 -2 -7
-7 -3 -6 3 -7 13 -4 23 5 14 3 15 -7 5 -9 -9 -18 -9 -33 -1 -15 7 -22 7 -28
-3 -7 -11 -9 -11 -9 1 0 10 -3 11 -8 4 -9 -15 -58 -10 -54 5 1 7 -2 10 -7 7
-5 -4 -14 2 -20 11 -6 10 -11 13 -11 8 0 -6 6 -17 13 -24 10 -11 7 -12 -13 -6
-14 4 -33 13 -43 20 -15 10 -29 9 -79 -6 -34 -11 -68 -25 -75 -31 -7 -6 -13
-7 -13 -3 0 4 -7 2 -15 -5 -8 -7 -24 -10 -35 -7 -13 3 -18 1 -13 -6 4 -6 0 -8
-10 -4 -10 3 -17 2 -17 -3 0 -6 -5 -10 -12 -10 -6 0 -20 -7 -30 -17 -14 -13
-18 -13 -18 -2 0 12 -2 12 -9 0 -5 -8 -20 -16 -32 -18 -13 -2 -35 -10 -51 -17
-15 -8 -28 -11 -28 -7 0 11 126 91 162 103 16 6 27 13 24 15 -6 7 -293 -121
-461 -204 -71 -36 -213 -112 -316 -169 -180 -101 -305 -155 -565 -244 -61 -21
-139 -44 -173 -51 -39 -7 -58 -15 -50 -20 8 -4 11 -10 8 -14 -11 -10 -220 -57
-227 -50 -11 10 28 35 76 48 43 11 50 24 32 58 -9 16 -6 22 21 38 17 11 47 22
65 26 22 4 90 48 187 121 83 63 190 135 237 160 47 24 76 43 65 40 -11 -3 -60
-14 -108 -26 -48 -11 -98 -25 -110 -30 -28 -11 -61 -23 -67 -25 -3 0 -22 -7
-43 -14 -43 -15 -92 -7 -81 12 4 7 4 9 -1 5 -4 -4 -15 -2 -23 5 -12 9 -14 9
-9 0 5 -8 -4 -18 -25 -29 -18 -9 -50 -30 -70 -46 -32 -25 -40 -27 -59 -17 -17
9 -34 8 -83 -7 -34 -10 -62 -18 -64 -19 -1 -1 7 -22 18 -46 11 -24 20 -58 20
-75 0 -26 5 -33 28 -39 29 -7 62 -32 62 -47 0 -5 -10 1 -22 12 -14 12 -33 20
-48 18 -21 -3 -25 -9 -28 -41 -2 -24 -10 -42 -23 -50 -10 -6 -19 -16 -19 -22
0 -5 -17 -30 -38 -54 -29 -33 -41 -41 -47 -31 -6 9 -4 11 5 5 9 -5 11 -4 6 4
-6 8 -11 9 -20 2 -9 -8 -18 -6 -30 8 -9 10 -30 21 -45 24 -16 3 -36 13 -44 22
-19 18 -31 20 -21 3 5 -8 1 -8 -10 1 -10 8 -26 15 -37 16 -10 1 -30 14 -45 28
-14 15 -30 25 -34 22 -4 -2 -20 10 -36 26 -16 17 -39 35 -51 40 -13 5 -23 14
-23 21 0 7 23 42 52 77 28 36 46 61 40 57 -17 -10 -15 6 4 33 16 22 16 23 -4
12 -14 -7 -23 -8 -27 -1 -3 5 -1 10 6 10 7 0 9 3 6 7 -4 3 3 11 16 17 16 8 23
22 26 51 2 32 5 36 11 20 7 -16 9 -12 9 18 1 63 -41 139 -69 122 -6 -4 0 -19
16 -41 15 -19 24 -37 21 -40 -3 -3 -10 3 -16 14 -6 10 -21 26 -34 34 -21 15
-29 14 -97 -9 -41 -13 -108 -35 -148 -48 l-72 -23 21 34 c13 21 16 34 9 34 -7
0 -10 7 -7 15 4 8 2 17 -2 20 -12 7 -21 -19 -21 -58 -1 -26 -2 -29 -11 -15 -5
10 -11 64 -13 120 -5 116 -13 161 -29 151 -6 -4 -8 0 -4 11 4 10 3 15 -3 11
-9 -6 -14 8 -11 28 1 5 -9 6 -21 2 -20 -5 -21 -4 -5 5 9 6 17 16 17 23 0 7 -4
6 -10 -3 -7 -11 -11 -8 -19 15 -6 17 -17 43 -26 58 -8 16 -15 40 -15 53 0 13
-4 24 -8 24 -5 0 -14 11 -20 25 -9 20 -9 25 2 25 7 0 38 11 67 24 36 17 47 25
32 25 -29 1 -122 -34 -150 -57 -20 -15 -20 -19 -7 -36 12 -17 14 -17 14 -4 0
9 4 19 9 22 5 3 9 -5 9 -18 0 -12 12 -42 28 -66 25 -38 29 -54 34 -155 6 -95
11 -120 33 -164 15 -28 27 -61 27 -73 -1 -22 -2 -21 -30 10 -17 18 -30 29 -30
25 -1 -18 -21 25 -32 66 -9 37 -13 41 -19 25 -4 -10 -8 -13 -8 -6 -1 6 -8 12
-17 12 -13 0 -15 -7 -10 -34 5 -26 3 -35 -10 -40 -13 -5 -15 -2 -11 14 3 11 1
18 -4 14 -5 -3 -9 -18 -9 -33 0 -21 -6 -31 -22 -36 -23 -7 -23 -7 4 -18 30
-12 31 -14 48 -99 6 -32 15 -60 21 -63 5 -3 25 -2 44 4 33 9 35 8 35 -15 0
-13 5 -24 10 -24 6 0 10 4 10 8 0 10 199 96 205 90 3 -2 6 -14 7 -26 3 -19
-12 -29 -105 -72 -60 -28 -113 -47 -119 -44 -7 4 -8 2 -4 -4 4 -7 5 -12 3 -12
-5 0 -102 55 -155 87 -21 13 -45 19 -67 16 -28 -3 -33 0 -29 12 9 21 -5 125
-16 125 -5 0 -7 -7 -4 -15 12 -30 -5 -14 -30 29 -14 25 -40 54 -56 66 -17 12
-30 30 -30 41 0 11 -4 18 -8 15 -4 -2 -48 -12 -97 -20 -65 -11 -95 -21 -107
-36 -19 -24 -33 -26 -24 -5 7 19 -44 21 -63 3 -11 -11 -12 -10 -6 1 6 11 -1
12 -36 6 -103 -15 -117 -15 -64 1 28 8 56 17 64 20 11 3 12 19 8 72 -11 118
-31 212 -48 223 -6 3 -11 16 -12 27 -1 12 -5 22 -9 22 -4 0 -5 6 -2 14 3 8 0
17 -7 22 -7 4 -10 3 -7 -2 6 -10 -17 -36 -25 -28 -12 12 -13 -151 -2 -248 4
-37 12 -65 16 -62 5 3 9 -2 9 -11 0 -11 5 -15 15 -11 9 3 15 0 15 -9 0 -11
-12 -15 -44 -15 -25 0 -48 -5 -51 -10 -4 -7 -14 -3 -25 10 -18 21 -27 69 -33
180 -3 50 -3 48 -5 -16 -1 -39 -7 -75 -14 -82 -7 -7 -8 -12 -2 -12 5 0 11 -14
12 -31 1 -16 3 -33 3 -37 3 -21 -3 -31 -15 -26 -14 6 -17 31 -31 351 -3 78
-11 133 -21 155 -9 19 -13 24 -10 11 2 -13 0 -26 -5 -29 -6 -3 -9 -91 -8 -216
1 -206 1 -210 -22 -234 -32 -34 -45 -17 -60 76 -6 41 -14 80 -18 85 -4 6 -14
36 -21 68 -7 31 -18 57 -23 57 -6 0 -8 3 -4 6 3 4 -1 20 -9 37 -12 23 -18 27
-25 16 -5 -8 -9 -11 -10 -6 -1 4 -2 10 -3 15 -3 14 -68 97 -83 106 -10 5 -14
5 -9 -2 3 -6 1 -12 -6 -14 -9 -3 -4 -38 19 -129 17 -68 29 -126 28 -127 -2 -2
-12 19 -22 48 -10 28 -26 60 -36 71 -10 10 -15 19 -11 19 3 0 1 7 -6 15 -7 8
-20 15 -29 15 -10 0 -12 -3 -5 -8 14 -9 28 -75 14 -67 -6 3 -10 1 -10 -4 0 -6
5 -11 11 -11 8 0 8 -4 0 -14 -8 -10 -9 -20 -2 -33 22 -41 62 -157 66 -192 2
-20 7 -51 10 -68 9 -50 -1 -39 -20 20 -22 66 -75 181 -87 185 -4 2 -6 8 -2 13
3 5 0 8 -8 7 -7 -2 -12 3 -11 9 2 7 -3 12 -10 10 -6 -1 -11 4 -9 11 1 8 -2 11
-7 8 -10 -7 -8 -19 26 -136 14 -47 32 -114 39 -150 8 -36 16 -75 19 -87 4 -17
-3 -28 -32 -48 -48 -32 -79 -34 -42 -2 22 20 25 31 26 92 0 54 -1 61 -6 30
l-6 -40 -8 57 c-4 31 -4 64 0 74 5 13 3 15 -7 9 -10 -6 -11 -2 -6 21 4 20 4
24 -3 15 -10 -16 -12 -11 -51 159 -13 52 -33 128 -46 168 -13 40 -24 81 -24
92 0 11 -4 20 -9 20 -5 0 -12 12 -16 27 -5 21 -8 24 -15 13 -7 -12 -10 -12
-15 2 -6 14 -15 16 -51 11 -75 -10 -48 5 31 18 79 12 141 48 114 64 -8 6 3 13
31 21 24 7 47 11 51 9 4 -3 6 3 5 13 0 9 -14 21 -31 27 -22 7 -37 24 -55 62
-22 47 -28 52 -57 53 -23 0 -33 -5 -33 -15 0 -8 -4 -15 -9 -15 -14 0 -24 56
-16 90 7 32 25 51 25 26 0 -11 10 -16 34 -16 28 0 36 5 46 30 7 16 22 40 34
53 l23 24 -159 5 c-87 3 -163 9 -168 14 -6 6 -26 8 -45 6 -30 -4 -35 -8 -35
-29 0 -20 3 -23 13 -15 9 8 30 6 76 -8 34 -11 71 -20 81 -20 14 0 18 -11 22
-62 8 -110 10 -108 -98 -108 -104 0 -107 -2 -78 -64 10 -19 32 -43 50 -52 22
-12 30 -22 24 -28 -15 -15 -12 -56 5 -62 9 -4 14 -11 13 -18 -4 -23 14 -96 23
-90 5 3 9 -4 9 -14 0 -11 11 -68 25 -128 14 -60 35 -167 45 -239 25 -166 63
-290 94 -310 15 -10 57 -16 127 -19 134 -5 156 -14 130 -54 -7 -12 -23 -11
-92 3 -46 10 -88 24 -95 33 -10 14 -55 12 -100 -5 -10 -3 -14 2 -14 18 -1 18
-8 10 -30 -32 -28 -54 -61 -82 -68 -60 -2 6 -8 11 -13 11 -4 0 -6 -7 -2 -16
12 -32 -45 -6 -166 75 -65 43 -134 84 -154 92 -20 7 -34 16 -31 21 5 7 -18 12
-39 9 -4 0 -24 8 -44 19 -20 10 -40 17 -45 14 -4 -3 -8 -1 -8 4 0 6 -8 13 -17
16 -10 4 13 -23 50 -59 37 -36 65 -65 61 -65 -9 0 -204 144 -236 175 -44 41
-41 65 23 198 49 103 61 139 34 103 -8 -11 -15 -26 -15 -34 0 -9 -11 -30 -26
-49 -14 -18 -22 -33 -18 -33 4 0 -3 -12 -17 -26 -21 -23 -30 -25 -76 -22 -37
3 -62 13 -88 32 -33 25 -40 27 -61 16 -19 -11 -26 -11 -39 0 -25 20 -19 59 10
66 14 3 25 13 25 21 0 12 -3 12 -22 -1 -21 -15 -48 -7 -48 15 0 5 -18 26 -40
46 -22 21 -40 42 -40 47 0 5 -24 32 -52 62 -86 86 -109 115 -102 127 4 7 4 9
-1 5 -8 -8 -79 60 -87 83 -2 7 -9 9 -16 5 -13 -8 11 -54 35 -69 8 -5 10 -13 7
-19 -4 -6 -3 -8 3 -5 6 4 19 -10 28 -31 10 -20 23 -44 30 -52 16 -20 29 -104
15 -95 -19 12 -86 109 -100 145 -45 117 -183 264 -305 327 l-80 42 65 -6 c41
-4 74 -13 89 -24 13 -11 20 -19 16 -19 -5 0 10 -14 33 -32 23 -18 42 -38 42
-45 0 -7 5 -13 10 -13 6 0 18 -13 29 -30 10 -16 21 -27 24 -24 4 4 11 -5 16
-20 6 -14 17 -26 26 -26 24 0 18 15 -24 53 -21 19 -47 48 -57 65 -10 17 -21
29 -25 26 -4 -2 -17 12 -29 31 -12 19 -25 33 -29 30 -5 -2 -17 3 -27 11 -18
15 -18 15 3 11 17 -4 21 -1 18 15 -3 11 -12 32 -22 47 -9 14 -18 32 -19 39 -1
6 -13 25 -26 41 -12 16 -32 41 -43 56 -18 26 -23 27 -78 22 -32 -3 -65 -11
-74 -18 -26 -22 -53 -97 -53 -148 0 -42 6 -56 52 -115 29 -37 84 -100 122
-139 38 -40 108 -117 155 -172 47 -55 89 -102 92 -105 3 -3 33 -36 66 -75 33
-38 88 -92 123 -120 34 -27 81 -68 104 -90 24 -22 63 -57 88 -77 35 -28 48
-47 57 -82 12 -48 35 -74 142 -165 80 -68 235 -188 314 -243 6 -4 28 -22 50
-41 40 -34 150 -107 161 -107 4 0 47 -20 98 -44 50 -24 112 -51 138 -60 26 -9
72 -29 101 -46 38 -21 94 -38 202 -60 83 -16 182 -37 220 -45 228 -49 337 -68
401 -69 69 -1 75 1 106 30 53 51 69 51 156 1 108 -62 126 -65 206 -28 36 17
69 31 74 31 16 0 63 -42 94 -84 16 -23 47 -60 69 -83 35 -38 45 -43 83 -43 24
0 88 9 142 20 86 18 109 19 173 9 95 -14 142 -8 466 57 551 111 675 150 1015
319 217 108 465 207 715 285 55 17 111 36 125 42 78 33 264 84 470 128 149 33
230 55 270 76 140 72 169 68 275 -38 69 -68 195 -148 233 -148 8 0 26 -6 40
-14 36 -19 159 -66 174 -66 6 0 36 -12 67 -26 31 -14 72 -33 91 -41 19 -8 49
-21 65 -28 17 -7 55 -22 85 -33 44 -16 391 -152 475 -187 11 -4 29 -10 40 -12
11 -2 24 -8 29 -13 6 -6 20 -10 33 -10 13 0 23 -5 23 -10 0 -6 3 -9 8 -8 14 4
52 -13 52 -24 0 -6 9 -8 20 -5 10 3 20 1 22 -5 2 -5 11 -10 20 -11 9 -2 23 -9
32 -16 9 -7 16 -11 16 -7 0 4 20 -5 45 -19 25 -13 46 -24 48 -24 1 0 15 -4 30
-10 16 -6 35 -11 43 -11 8 0 14 -4 14 -10 0 -5 7 -7 15 -4 8 4 15 1 15 -6 0
-6 4 -9 9 -5 5 3 12 1 16 -5 4 -6 11 -8 16 -5 5 4 9 2 9 -3 0 -5 24 -20 53
-32 49 -21 137 -60 182 -80 11 -5 52 -23 90 -40 39 -18 144 -63 235 -101 91
-39 190 -81 221 -94 31 -14 96 -41 145 -61 48 -19 111 -48 139 -63 27 -15 64
-31 80 -35 28 -7 160 -57 335 -128 41 -17 82 -31 90 -33 31 -4 106 -27 130
-40 14 -7 50 -23 80 -35 30 -12 61 -24 68 -27 8 -3 10 0 6 11 -3 8 -15 18 -26
22 -15 4 -17 8 -8 14 9 5 9 9 1 14 -6 4 -15 5 -19 2 -5 -3 -15 4 -22 15 -18
25 -30 24 -25 -1 2 -11 0 -20 -6 -20 -8 0 -12 15 -12 45 0 6 -10 10 -23 10
-12 0 -20 -3 -18 -6 1 -3 -3 -6 -11 -6 -8 0 -12 4 -10 8 3 3 -3 13 -12 20 -14
12 -16 12 -9 -1 4 -8 1 -6 -8 4 -8 10 -13 23 -9 29 3 5 0 7 -8 5 -8 -3 -13
-11 -11 -18 1 -6 -9 -3 -24 9 -14 11 -31 18 -37 14 -6 -3 -7 -1 -3 5 4 6 -2
20 -14 32 -11 11 -18 20 -15 20 3 0 -4 9 -15 20 -11 11 -27 20 -35 20 -9 0
-18 6 -21 14 -3 8 -12 12 -20 9 -8 -3 -18 5 -25 20 -8 18 -18 24 -35 22 -13
-1 -25 4 -29 13 -3 8 -8 12 -11 9 -8 -8 -44 25 -38 35 3 5 2 7 -3 6 -4 -1 -18
3 -30 10 -13 7 -23 9 -23 5 0 -4 -6 -1 -13 8 -7 9 -27 24 -45 33 -18 9 -36 24
-39 32 -3 8 -12 13 -19 10 -8 -3 -14 1 -14 9 0 17 -16 20 -25 6 -3 -5 -17 1
-31 14 -15 14 -30 22 -35 19 -5 -3 -9 1 -9 8 0 10 -2 10 -9 -1 -6 -10 -10 -10
-16 -1 -4 6 -13 9 -21 6 -8 -3 -14 -1 -14 5 0 6 -4 8 -9 5 -5 -4 -11 -1 -13 6
-2 6 -15 13 -27 15 -21 3 -22 1 -10 -13 13 -16 12 -16 -8 -4 -12 8 -19 18 -17
22 6 9 5 9 -41 13 -16 1 -41 7 -55 12 -14 6 -31 8 -38 6 -7 -3 -23 2 -35 10
-12 8 -41 18 -64 22 -23 3 -47 13 -54 21 -14 18 -30 9 -23 -14 5 -14 2 -13
-11 3 -13 17 -17 18 -25 6 -7 -13 -13 -13 -37 -1 -15 8 -38 13 -51 12 -12 0
-21 2 -18 6 2 4 -6 8 -17 8 -47 3 -77 9 -77 15 0 4 -13 6 -30 5 -16 -1 -31 3
-34 10 -3 7 -17 11 -31 9 -15 -1 -29 3 -31 10 -3 7 -16 11 -29 10 -14 -2 -26
3 -30 12 -3 9 -8 13 -11 10 -4 -3 -27 2 -53 12 -26 10 -57 17 -69 16 -12 -1
-22 2 -22 6 0 14 -65 47 -105 53 -21 4 -42 10 -45 14 -9 14 -68 34 -79 28 -5
-4 -13 -1 -17 5 -4 8 -3 9 4 5 7 -4 12 -5 12 -2 0 3 -10 10 -22 17 -18 10 -20
9 -15 -5 6 -14 4 -15 -16 -5 -13 8 -17 14 -9 17 20 6 14 22 -9 22 -11 0 -17 4
-14 10 3 5 0 7 -8 5 -7 -3 -24 3 -36 14 -13 11 -32 23 -42 26 -11 4 -19 11
-19 16 0 6 -4 7 -10 4 -5 -3 -19 3 -31 14 -12 11 -27 18 -32 14 -6 -3 -7 -1
-3 5 3 6 2 13 -3 16 -5 4 -13 1 -16 -4 -10 -16 -45 18 -38 36 3 8 0 14 -7 14
-16 0 -41 26 -32 34 3 4 -1 4 -11 0 -12 -4 -17 -1 -17 10 0 11 -7 16 -17 14
-12 -2 -18 3 -17 15 1 10 -5 17 -17 17 -14 0 -20 10 -25 41 -6 34 -10 40 -26
36 -15 -4 -17 -3 -8 8 8 10 8 15 -1 21 -8 4 -9 3 -5 -4 4 -7 2 -12 -3 -12 -6
0 -11 -8 -11 -17 0 -15 -2 -16 -10 -3 -6 10 -4 23 7 40 12 18 13 22 2 14 -8
-6 -22 -11 -31 -11 -15 0 -15 3 -5 16 9 12 9 13 0 7 -7 -4 -13 -3 -13 3 0 6
-7 8 -15 5 -11 -5 -13 -2 -8 12 4 12 3 15 -5 10 -7 -4 -12 -3 -12 3 0 6 -7 7
-17 4 -10 -4 -14 -2 -9 5 3 6 2 13 -4 17 -5 3 -10 0 -10 -7 0 -7 -10 -2 -21
12 -11 14 -17 18 -13 10 7 -13 5 -13 -9 -1 -9 7 -15 16 -12 20 10 17 -106 -14
-160 -43 -57 -30 -60 -16 -6 32 33 29 51 53 47 60 -4 7 -2 11 6 9 7 -2 3 1 -9
7 -13 5 -23 16 -23 24 0 7 -4 10 -10 7 -5 -3 -19 -1 -31 5 -15 9 -18 15 -10
23 6 6 11 16 11 21 0 6 -5 4 -10 -4 -6 -10 -10 -11 -10 -2 0 6 -6 12 -14 12
-7 0 -24 10 -37 23 -14 12 -28 23 -33 24 -4 1 -11 5 -14 9 -4 4 -1 4 6 0 6 -4
12 -2 12 3 0 6 -5 11 -11 11 -6 0 -9 14 -6 35 3 19 1 38 -5 41 -5 3 -1 12 8
18 12 9 14 15 6 20 -7 4 -12 2 -12 -4 0 -7 -6 -10 -14 -7 -8 3 -17 -1 -20 -9
-3 -8 -2 -13 3 -10 5 3 11 -1 14 -9 4 -9 1 -12 -9 -8 -8 3 -22 -3 -32 -14 -9
-11 -25 -22 -34 -26 -28 -10 -23 38 7 77 38 49 80 133 59 115 -20 -16 -19 -13
19 60 16 29 23 50 16 46 -9 -6 -10 1 -5 26 4 19 7 54 8 79 0 25 6 48 12 52 8
6 8 8 0 8 -8 0 -8 15 -2 53 11 61 16 115 24 292 8 157 -9 265 -56 358 -37 73
-76 127 -92 127 -7 0 -5 -7 4 -17 20 -23 58 -127 58 -157 0 -33 -10 -38 -39
-17 -57 39 -61 37 -61 -34 0 -55 3 -66 21 -76 12 -6 35 -8 51 -5 24 5 30 2 38
-20 13 -32 12 -149 0 -234 -18 -128 -91 -330 -138 -382 -16 -19 -58 -24 -80
-10 -9 7 -8 21 7 68 49 153 75 277 86 409 5 65 4 76 -6 61 -7 -11 -18 -47 -24
-80 -30 -144 -75 -301 -107 -368 -69 -145 -106 -157 -84 -28 9 52 10 80 3 91
-7 12 -5 40 6 95 46 216 62 441 35 499 -15 33 -21 32 -35 -6 -16 -41 -34 -33
-47 22 -10 41 -15 46 -77 77 -157 79 -314 53 -442 -73 -61 -60 -129 -182 -126
-225 1 -14 -1 -32 -4 -40 -16 -41 -22 -110 -14 -160 17 -106 15 -122 -16 -133
-18 -6 -32 -6 -38 0 -5 5 -14 50 -20 99 -6 49 -15 97 -20 106 -5 10 -5 19 1
23 6 3 10 17 10 30 0 39 55 190 91 252 74 124 204 222 333 249 85 18 150 12
225 -22 30 -13 56 -22 58 -20 5 5 -53 121 -79 159 -11 15 -29 27 -40 27 -26 0
-136 62 -120 68 6 2 22 -4 34 -12 29 -20 44 -21 28 -1 -11 13 -10 14 4 9 9 -3
16 -1 16 5 0 30 -103 42 -119 14z m-1188 -316 c-17 -7 -35 -15 -39 -19 -10
-11 -24 -10 -24 1 0 11 47 29 75 29 13 0 9 -3 -12 -11z m-3693 -451 c0 -11
-19 -15 -25 -6 -3 5 1 10 9 10 9 0 16 -2 16 -4z m-80 -87 c0 -5 -2 -9 -4 -9
-2 0 -11 -3 -19 -6 -12 -4 -14 0 -10 15 5 19 33 19 33 0z m-160 -59 c0 -5 -6
-10 -14 -10 -8 0 -18 5 -21 10 -3 6 3 10 14 10 12 0 21 -4 21 -10z m5831 -305
c5 4 9 2 9 -4 0 -5 -4 -12 -9 -15 -9 -6 -22 17 -20 37 1 7 3 4 6 -6 2 -9 9
-15 14 -12z m-6751 -166 c20 -19 59 -42 86 -51 36 -12 42 -17 23 -17 -14 -1
-47 14 -74 32 -27 17 -57 37 -67 43 -28 17 -50 52 -42 66 5 8 12 4 23 -13 8
-13 32 -40 51 -60z m2703 31 c3 -11 2 -22 -3 -25 -4 -3 -10 8 -12 25 -5 32 6
32 15 0z m3271 -26 c3 -8 2 -12 -4 -9 -6 3 -10 10 -10 16 0 14 7 11 14 -7z
m-4344 -109 c0 -19 1 -38 2 -42 3 -16 -32 -14 -38 1 -7 18 14 76 27 76 5 0 9
-16 9 -35z m3520 20 c-7 -8 -17 -15 -23 -15 -6 0 -2 7 9 15 25 19 30 19 14 0z
m-2549 -49 c5 -6 9 -15 9 -20 0 -6 -5 -3 -11 8 -9 15 -13 16 -20 5 -6 -10 -9
-4 -9 17 0 38 14 55 18 22 2 -12 8 -27 13 -32z m-318 12 c40 -54 56 -93 63
-154 5 -42 4 -55 -4 -50 -8 5 -10 2 -6 -9 9 -22 -22 -98 -45 -112 -47 -29
-162 23 -166 74 0 10 -4 24 -8 30 -12 20 -20 108 -13 146 9 49 47 87 88 88 28
0 30 2 13 9 -16 7 -13 9 17 9 30 1 41 -5 61 -31z m-2104 -20 c-24 -35 -41 -50
-47 -43 -4 4 59 75 66 75 2 0 -7 -15 -19 -32z m1618 16 c-3 -3 -12 -4 -19 -1
-8 3 -5 6 6 6 11 1 17 -2 13 -5z m4448 -42 c-29 -18 -91 -43 -104 -42 -3 1 19
14 49 30 60 32 103 41 55 12z m-4547 -4 c-3 -7 -19 -15 -36 -19 -66 -13 -117
-71 -106 -120 4 -14 2 -19 -3 -12 -5 6 -9 -10 -9 -40 -1 -38 1 -47 7 -32 8 16
8 15 4 -7 -11 -55 56 -112 122 -106 22 2 37 -1 36 -7 -2 -6 -26 -11 -54 -13
-47 -3 -53 0 -89 35 -44 44 -65 106 -55 163 10 61 59 128 108 150 48 22 81 26
75 8z m4920 -39 c-1 -17 -5 -32 -9 -34 -3 -3 -5 8 -3 23 3 40 4 42 9 42 3 0 4
-14 3 -31z m-3611 -26 c-3 -10 -5 -4 -5 12 0 17 2 24 5 18 2 -7 2 -21 0 -30z
m-1097 -12 c0 -16 7 -36 15 -44 7 -8 17 -26 20 -40 6 -23 4 -25 -27 -25 -18
-1 -80 -10 -138 -21 -58 -10 -107 -17 -110 -15 -9 10 -4 114 7 125 10 10 168
45 216 48 12 1 17 -7 17 -28z m-706 -14 c-7 -18 -24 -23 -24 -8 0 22 13 42 22
33 5 -5 6 -16 2 -25z m1553 17 c-3 -3 -12 -4 -19 -1 -8 3 -5 6 6 6 11 1 17 -2
13 -5z m183 -18 c0 -22 17 -28 39 -16 18 9 23 5 40 -29 11 -21 34 -50 51 -63
l31 -24 -24 -22 -24 -23 -32 26 c-17 15 -31 23 -31 19 0 -4 -9 1 -20 11 -13
11 -18 25 -14 37 7 24 -4 58 -19 55 -6 -1 -13 8 -15 21 -2 12 1 22 7 22 6 0
11 -6 11 -14z m-858 -11 c4 -5 8 -24 8 -42 0 -26 -5 -33 -32 -42 -17 -6 -32
-10 -33 -9 -1 2 -7 12 -13 23 -8 14 -12 16 -12 5 0 -13 -1 -13 -10 0 -10 16
-14 63 -5 72 9 9 90 3 97 -7z m987 -63 c19 -17 21 -22 8 -18 -10 3 -20 6 -23
6 -5 0 -44 77 -44 87 1 4 8 -5 17 -22 8 -16 27 -40 42 -53z m-149 -22 c11 -22
18 -40 15 -40 -4 0 14 -18 39 -39 27 -24 42 -43 35 -47 -6 -3 -23 6 -39 21
l-27 26 -96 -44 c-101 -47 -139 -51 -158 -16 -8 16 -5 21 18 29 15 6 65 27
110 48 83 37 83 37 77 70 -8 43 1 40 26 -8z m-1510 -5 c0 -13 -4 -27 -10 -30
-6 -4 -10 8 -10 30 0 22 4 34 10 30 6 -3 10 -17 10 -30z m-280 -5 c0 -5 -12
-10 -26 -10 -36 0 -90 -27 -107 -54 -8 -12 -17 -48 -21 -81 -6 -50 -3 -65 13
-92 11 -17 30 -37 43 -44 l23 -12 -24 27 c-24 26 -24 45 1 30 7 -4 24 -8 39
-8 31 -1 62 -24 55 -41 -8 -22 33 -4 65 27 18 18 29 24 29 15 0 -8 -9 -22 -19
-31 -11 -10 -18 -23 -16 -29 3 -7 -2 -21 -11 -32 -12 -16 -27 -20 -69 -20 -44
0 -61 6 -101 33 -40 29 -51 32 -71 23 -13 -6 -28 -11 -32 -11 -8 0 -41 60 -41
74 0 3 17 10 39 17 37 11 39 13 44 65 7 64 35 114 80 143 33 21 107 29 107 11z
m370 -49 c0 -23 -69 -38 -82 -18 -12 19 -9 25 15 30 51 10 67 7 67 -12z m-146
-7 c3 -9 6 -28 6 -42 -1 -26 -1 -26 -15 -8 -16 22 -20 66 -6 66 5 0 12 -7 15
-16z m811 -68 c-18 -28 -38 -27 -28 2 11 26 27 41 36 32 5 -4 1 -20 -8 -34z
m185 -18 l-22 -18 22 0 c20 0 100 -65 100 -82 0 -10 -32 2 -43 16 -5 7 -6 4
-3 -7 3 -10 6 -23 6 -28 0 -6 4 -8 8 -5 5 3 9 -1 9 -9 0 -14 -28 -15 -59 -1
-10 4 -23 6 -30 3 -7 -2 -25 4 -40 15 -24 17 -26 22 -16 43 6 14 19 27 30 30
10 4 18 11 18 16 0 6 -5 7 -12 3 -6 -4 2 9 18 29 16 20 31 32 33 25 2 -6 -6
-20 -19 -30z m-621 -32 c-11 -9 -63 -17 -54 -8 6 6 19 12 30 14 20 4 32 1 24
-6z m75 -64 c3 -5 -8 -21 -23 -36 -25 -24 -31 -26 -49 -15 -20 13 -20 14 11
35 34 25 53 29 61 16z m-963 -69 c7 -16 15 -31 17 -35 2 -5 -3 -8 -12 -8 -17
0 -49 53 -39 64 12 11 20 6 34 -21z m848 -2 c6 -10 7 -21 4 -25 -10 -10 -62
-7 -84 4 -29 16 -23 28 19 33 20 2 40 4 44 5 4 1 12 -6 17 -17z m1291 -131
c19 -17 29 -30 22 -30 -6 0 -26 13 -44 30 -43 38 -24 38 22 0z m-1912 -7 c-10
-2 -26 -2 -35 0 -10 3 -2 5 17 5 19 0 27 -2 18 -5z m6882 -188 c0 -7 -30 -13
-34 -7 -3 4 4 9 15 9 10 1 19 0 19 -2z"/>
<path d="M5394 2022 c-7 -4 -19 -30 -27 -58 -12 -41 -13 -62 -5 -95 6 -24 12
-53 13 -64 1 -11 7 -19 12 -18 6 1 21 -9 33 -22 27 -29 40 -31 79 -10 35 17
61 70 61 122 0 48 -30 115 -61 137 -24 16 -85 21 -105 8z"/>
<path d="M5523 1753 c-17 -18 -28 -33 -24 -33 9 0 66 59 60 63 -2 1 -18 -12
-36 -30z"/>
<path d="M4380 1484 c-16 -8 -19 -14 -9 -14 8 0 24 7 35 15 24 18 7 18 -26 -1z"/>
<path d="M4328 1463 c7 -3 16 -2 19 1 4 3 -2 6 -13 5 -11 0 -14 -3 -6 -6z"/>
<path d="M5555 1540 c4 -6 11 -8 16 -5 14 9 11 15 -7 15 -8 0 -12 -5 -9 -10z"/>
<path d="M9641 3548 c6 -13 34 -49 61 -81 27 -31 53 -72 58 -90 l9 -32 -36 40
c-19 22 -53 64 -74 93 -43 57 -57 67 -35 25 16 -32 51 -150 62 -208 6 -35 8
-37 13 -16 4 14 12 26 19 29 19 6 68 -112 87 -213 24 -122 25 -125 37 -95 11
28 4 114 -18 240 -18 102 -70 212 -132 282 -46 51 -71 63 -51 26z"/>
<path d="M8274 3510 c-45 -10 -88 -20 -95 -23 -22 -9 147 2 194 12 23 6 66 11
94 12 29 2 58 6 65 11 24 15 -176 5 -258 -12z"/>
<path d="M4656 3425 c16 -58 6 -136 -26 -199 -16 -32 -30 -74 -30 -93 0 -21
-6 -36 -15 -39 -12 -5 -13 -10 -4 -20 18 -22 25 -17 47 34 49 114 66 303 32
336 -10 8 -11 4 -4 -19z"/>
<path d="M4115 3350 c-3 -5 -1 -10 4 -10 6 0 11 5 11 10 0 6 -2 10 -4 10 -3 0
-8 -4 -11 -10z"/>
<path d="M4018 3323 c-3 -15 -6 -32 -8 -38 -1 -5 -1 -26 0 -45 1 -30 4 -27 17
29 10 41 11 67 5 73 -6 6 -11 -1 -14 -19z"/>
<path d="M6093 3272 c-8 -5 -9 -13 -3 -22 6 -10 13 -11 19 -5 13 13 -1 36 -16
27z"/>
<path d="M9860 3227 c0 -9 4 -18 9 -21 5 -4 8 1 7 9 -3 21 -16 31 -16 12z"/>
<path d="M4070 3194 c-15 -38 -12 -54 10 -54 22 0 22 0 24 48 3 39 -20 44 -34
6z"/>
<path d="M6128 3203 c7 -3 16 -2 19 1 4 3 -2 6 -13 5 -11 0 -14 -3 -6 -6z"/>
<path d="M4002 3180 c0 -14 2 -19 5 -12 2 6 2 18 0 25 -3 6 -5 1 -5 -13z"/>
<path d="M4891 3121 c-11 -7 -10 -10 5 -14 57 -17 93 -18 129 -3 21 9 40 14
43 12 2 -3 -1 -21 -8 -41 -8 -24 -8 -40 -2 -48 6 -7 13 -48 16 -92 5 -64 4
-76 -5 -57 -13 25 -28 26 -152 16 l-76 -7 15 -28 c8 -16 13 -34 12 -41 -5 -21
39 -20 88 1 60 27 124 38 124 22 0 -7 11 -11 27 -9 28 3 28 5 24 76 -1 14 -3
14 -10 3 -10 -16 -16 10 -24 103 -3 33 -2 44 5 35 7 -10 8 -6 3 14 -4 19 -2
26 5 22 5 -3 10 -1 10 4 0 6 5 11 11 11 7 0 9 -12 5 -35 -7 -34 -6 -35 24 -35
16 0 30 1 30 3 0 1 7 23 15 50 l14 47 -157 0 c-86 0 -163 -4 -171 -9z m196
-163 c-2 -13 -4 -5 -4 17 -1 22 1 32 4 23 2 -10 2 -28 0 -40z"/>
<path d="M4546 3044 c30 -60 32 -143 5 -197 -14 -28 -15 -35 -5 -26 61 50 58
196 -6 254 -14 13 -13 7 6 -31z"/>
<path d="M4396 3029 c-35 -42 -37 -132 -4 -175 13 -15 16 -24 9 -19 -10 5 -12
4 -7 -3 9 -15 72 -16 81 -2 3 6 1 10 -6 10 -7 0 -9 9 -5 28 8 30 9 57 4 87 -2
14 3 20 20 21 24 1 45 14 23 14 -7 0 -9 5 -6 10 4 6 11 7 17 4 6 -4 6 2 -1 15
-27 50 -88 55 -125 10z"/>
<path d="M4525 2976 c-14 -16 -13 -61 3 -75 10 -10 11 -7 6 16 -4 15 -8 30
-10 32 -2 2 1 10 8 18 13 17 7 26 -7 9z"/>
<path d="M5173 2843 c9 -2 23 -2 30 0 6 3 -1 5 -18 5 -16 0 -22 -2 -12 -5z"/>
<path d="M5935 2801 c-15 -13 -73 -21 -77 -11 -8 25 -168 -76 -168 -106 0 -20
17 -17 22 4 4 14 22 22 66 31 33 6 82 23 108 36 27 14 50 25 52 25 1 0 2 -21
2 -46 0 -46 19 -138 27 -131 2 3 6 45 9 93 3 49 8 91 10 93 2 2 10 -2 18 -8 8
-7 25 -11 38 -9 22 3 21 5 -9 21 -34 18 -83 22 -98 8z"/>
<path d="M4680 2795 c0 -2 15 -30 34 -62 39 -67 79 -158 113 -258 l24 -70 -6
130 c-9 185 -11 192 -54 214 -49 25 -111 51 -111 46z"/>
<path d="M4470 2770 c-9 -6 -10 -10 -3 -10 6 0 15 5 18 10 8 12 4 12 -15 0z"/>
<path d="M5810 2697 c-96 -41 -99 -43 -93 -67 5 -18 7 -19 42 -4 20 9 62 25
94 36 31 11 57 24 57 28 0 5 3 15 6 24 9 24 -21 19 -106 -17z"/>
<path d="M5822 2625 c-102 -35 -107 -38 -99 -59 5 -12 22 -8 99 21 102 38 111
43 100 59 -5 6 -39 -1 -100 -21z"/>
<path d="M6143 2626 c0 -14 3 -26 8 -26 11 0 11 21 0 39 -6 9 -8 5 -8 -13z"/>
<path d="M5693 2580 c1 -25 6 -43 12 -41 6 1 8 8 6 15 -2 6 -7 25 -12 41 -7
26 -7 24 -6 -15z"/>
<path d="M5829 2567 c-85 -31 -94 -37 -87 -58 5 -15 198 61 198 77 0 19 -12
17 -111 -19z"/>
<path d="M5970 2568 c0 -4 9 -8 20 -8 11 0 20 4 20 9 0 6 -9 9 -20 8 -11 -1
-20 -5 -20 -9z"/>
<path d="M4947 2553 c-4 -3 -7 -11 -7 -17 0 -6 5 -5 12 2 6 6 9 14 7 17 -3 3
-9 2 -12 -2z"/>
<path d="M5504 2488 c3 -29 8 -83 12 -120 l6 -66 89 76 c116 100 116 109 -1
141 -112 31 -113 31 -106 -31z"/>
<path d="M5706 2506 c3 -9 11 -16 16 -16 13 0 5 23 -10 28 -7 2 -10 -2 -6 -12z"/>
<path d="M4945 2500 c3 -5 8 -10 11 -10 2 0 4 5 4 10 0 6 -5 10 -11 10 -5 0
-7 -4 -4 -10z"/>
<path d="M3581 2414 c0 -11 3 -14 6 -6 3 7 2 16 -1 19 -3 4 -6 -2 -5 -13z"/>
<path d="M3307 2378 c-2 -7 -1 -22 4 -33 6 -16 8 -14 8 13 1 33 -4 41 -12 20z"/>
<path d="M5811 2274 c0 -11 3 -14 6 -6 3 7 2 16 -1 19 -3 4 -6 -2 -5 -13z"/>
<path d="M4175 2210 c-4 -7 0 -19 9 -28 13 -14 16 -14 16 -2 0 25 -16 44 -25
30z"/>
<path d="M4932 2195 c0 -16 2 -22 5 -12 2 9 2 23 0 30 -3 6 -5 -1 -5 -18z"/>
<path d="M5811 2194 c0 -11 3 -14 6 -6 3 7 2 16 -1 19 -3 4 -6 -2 -5 -13z"/>
<path d="M7815 1971 c-148 -46 -425 -168 -425 -187 0 -2 42 12 93 30 50 19
150 55 221 81 143 52 236 91 236 99 0 11 -36 4 -125 -23z"/>
<path d="M6716 1497 c3 -10 9 -15 12 -12 3 3 0 11 -7 18 -10 9 -11 8 -5 -6z"/>
<path d="M12866 497 c3 -10 9 -15 12 -12 3 3 0 11 -7 18 -10 9 -11 8 -5 -6z"/>
<path d="M13143 348 c11 -10 14 -18 8 -18 -21 0 -11 -18 17 -28 15 -6 43 -17
64 -26 42 -18 57 -4 31 29 -15 19 -15 19 -10 -3 6 -23 5 -24 -15 -5 -12 10
-18 12 -14 6 4 -7 4 -13 1 -13 -8 0 -35 27 -38 37 -1 4 -6 7 -11 5 -5 -2 -6 4
-3 12 4 10 1 13 -9 9 -8 -3 -20 -1 -27 3 -7 5 -4 1 6 -8z"/>
<path d="M13277 298 c4 -7 8 -20 8 -28 0 -16 40 -40 68 -40 20 0 25 49 5 51
-46 3 -62 7 -66 17 -2 7 -8 12 -13 12 -6 0 -7 -6 -2 -12z"/>
</g>
</svg>
